<svg xmlns="http://www.w3.org/2000/svg" width="1362.209" height="1174.337" viewBox="0 0 1362.209 1174.337">
  <g id="icon" transform="translate(-352.253 -285)">
    <g id="グループ_17" data-name="グループ 17" transform="translate(26.914 -466.876)">
      <g id="グループ_11" data-name="グループ 11" transform="translate(498.498 751.876)">
        <path id="パス_50" data-name="パス 50" d="M776.826,833.592C668.8,692.609,384.06,729.853,337.146,987.138c-20.91,177.2,60.5,427.02,155.394,618.757,104.83,211.934,270.346,347.651,361.213,240.831" transform="translate(-305.482 -740.596)" fill="none"/>
        <path id="パス_51" data-name="パス 51" d="M832.6,834.251c-80.673-93.948-204.584-98.287-314.3-59.028-157.41,56.348-196.311,216.936-183.344,366.8C349.443,1309.75,613.08,2147.458,908.6,1856.18c13.868-13.679-44.52-7.041-55.354,3.649-96.863,95.49-254.155-162.434-285.115-216.224-71.759-124.694-119.788-267.406-153.38-406.633-28.092-116.444-39.471-241.826,18.728-350.426,71.309-133.039,249.556-138.61,341.891-31.079,10.408,12.138,67.729-9.008,57.227-21.217Z" transform="translate(-332.644 -751.876)" fill="#fff"/>
      </g>
      <g id="グループ_12" data-name="グループ 12" transform="translate(1082.422 922.208)">
        <path id="パス_52" data-name="パス 52" d="M358.131,807.526c156.769-123.345,442.525-5,411.138,287.035-70.479,416.851-255.151,516.94-350.26,563.26" transform="translate(-337.838 -757.751)" fill="none"/>
        <path id="パス_53" data-name="パス 53" d="M397.86,803.409c95.868-67.729,210.915-32.6,291.4,41.888,106.393,98.477,84.253,250.529,53.837,375.507-46.2,189.936-146.979,356.211-324.942,443.782,12.28-6.045,28.211-4.788,40.585-10.882,233.838-115.069,392.125-428.465,343.835-685.466-39.091-208.069-289.548-263.969-445.3-153.949,10.645-7.538,29.752-3.246,40.586-10.88Z" transform="translate(-357.274 -759.062)" fill="#fff"/>
      </g>
      <g id="グループ_13" data-name="グループ 13" transform="translate(875.44 1173.519)">
        <path id="パス_54" data-name="パス 54" d="M817.491,1150.31c-45.587,179.244-184.126,301.285-309.414,272.74-125.169-28.589-189.721-197.069-144.087-376.241C409.625,867.591,548.117,745.55,673.358,774.093,798.6,802.707,863.126,971.092,817.491,1150.31Z" transform="translate(-330.42 -763.102)" fill="none"/>
        <path id="パス_55" data-name="パス 55" d="M815.323,1162.3c-35.2,119.527-104.331,234.882-230.757,271.7q18.918-5.014,37.835-10C266.665,1477.38,363.149,854.949,633.14,776.245q-18.918,5.047-37.835,10.026C809.561,754.1,848.677,1005.246,815.323,1162.3c1.28-5.927,39.21-4.361,40.585-10.857,31.126-146.551-8.534-430.53-225.992-374.583C486.09,813.842,403.592,917.129,361.822,1058.8c-43.5,147.57,16.855,428.419,225.991,374.607,143.827-37.008,226.348-140.248,268.095-281.963C853.916,1158.176,817.48,1155.047,815.323,1162.3Z" transform="translate(-348.543 -769.662)" fill="#fff"/>
      </g>
      <g id="グループ_14" data-name="グループ 14" transform="translate(673.831 1216.449)">
        <path id="パス_56" data-name="パス 56" d="M808.066,1070.385c29.278,182.207-50.257,344.785-177.583,363.157-127.35,18.349-254.344-114.5-283.6-296.755C317.608,954.556,397.07,791.932,524.42,773.654,651.795,755.282,778.789,888.131,808.066,1070.385Z" transform="translate(-322.43 -760.503)" fill="none"/>
        <path id="パス_57" data-name="パス 57" d="M805.383,1086.784c14.982,122.419-12,390.466-216.486,342.532-122.75-28.78-182.491-178.389-204.11-287.011-24.655-123.724,21.146-388.238,216.462-342.484,122.727,28.755,182.491,178.342,204.134,286.963,2.323,11.521,43.074,1.636,40.585-10.88C818.588,938.572,712.929,737.662,539.826,776.326c-172.013,38.4-214.589,222.011-195.624,376.86,17.044,139.368,139.985,336.889,306.1,299.647,171.965-38.547,214.612-222.01,195.671-376.929C844.641,1064.927,803.8,1073.651,805.383,1086.784Z" transform="translate(-340.04 -771.473)" fill="#fff"/>
      </g>
      <g id="グループ_15" data-name="グループ 15" transform="translate(847.315 1687.557)">
        <path id="パス_58" data-name="パス 58" d="M393.118,883.319c-98.973-101.557-16.926,112.322,77.875,99.307C565.748,969.681,596.281,695.8,527.7,827.088" transform="translate(-328.246 -786.504)" fill="none"/>
        <path id="パス_59" data-name="パス 59" d="M432.523,882.71c-10.146-10.17-21.834-23.4-36.294-27.239-9.412-2.512-25.46,5.572-34.28,8.012-23.659,6.472-13.441,26.315-4.765,44.522,14.746,30.936,39.234,59.549,69.341,76.214,29.538,16.381,59.124,5.5,89.088-3.082,58.91-16.855,83.067-103.192,88.164-156.556,1.375-14.438,3.485-36.792-15.955-31.79-33.663,8.651-44.4,12.991-61.3,44.568,4.433-8.25,35.962-2.229,40.585-10.88,6.163-11.475,13.8-29.492,26.693-35.133q-19.913,5.37-39.827,10.74c18.847-4.316,4.837,61.944,3.366,68.344-9.008,39.281-26.124,82.189-57.606,108.788a73.063,73.063,0,0,1-10.62,7.16c-16.927,9.98,37.811-5.927,16.31-3.865-9.909.949-19.843-1.683-29.064-4.955-21.62-7.609-39.328-25.08-53.766-42.2-6.875-8.155-52.344-71.285-30.084-79.891q-20.269,5.441-40.561,10.882c14.865-1.683,30.961,18.181,39.993,27.238,5.144,5.145,35.844-15.623,40.585-10.88Z" transform="translate(-347.358 -791.346)" fill="#fff"/>
      </g>
      <g id="グループ_16" data-name="グループ 16" transform="translate(325.339 1770.452)">
        <path id="パス_60" data-name="パス 60" d="M326.209,795.113S508.415,937.469,992.378,937.469c483.987,0,654.79-142.356,654.79-142.356" transform="translate(-305.584 -788.708)" fill="none"/>
        <path id="パス_61" data-name="パス 61" d="M325.339,806.795c61.849,46.963,144.371,70.622,217.741,90.937,220.919,61.211,462.3,62.325,688.572,38.262,139.607-14.864,342.461-48.478,455.9-140.27-10.028,8.107-31.056,2.8-41.272,11.07C1466.938,951.9,1160.984,942.467,945.518,936.469c-181.068-5.049-426.926-25.246-578.907-140.744-7.159-5.429-34.54,16.169-41.273,11.07Z" transform="translate(-325.339 -794.842)" fill="#fff"/>
      </g>
    </g>
  </g>
</svg>
