<svg xmlns="http://www.w3.org/2000/svg" xmlns:xlink="http://www.w3.org/1999/xlink" width="1320" height="411" viewBox="0 0 1320 411">
  <defs>
    <clipPath id="clip-mv2">
      <rect width="1320" height="411"/>
    </clipPath>
  </defs>
  <g id="mv2" clip-path="url(#clip-mv2)">

    <g id="mv2-2" data-name="mv2" transform="translate(-374 -327)">
      <g id="レイヤー_1" data-name="レイヤー 1" transform="translate(514.608 346.222)">
        <g id="グループ_1" data-name="グループ 1">
          <path id="パス_1" data-name="パス 1" d="M984.345,454.552A230.245,230.245,0,0,1,932.3,443.17c-9.211-3.244-14.4-5.776-15.615-7.584q0-1.388,35.846,3.638c80,12.413,161.225.649,240.6-10.892,42.176-6.127,92.244-16.987,123.655-47.994q35.438-34.911-24.806-67.12Q1257,294.39,1222.529,294.358h-2.277q-6.03,0-11.062.479a132.092,132.092,0,0,0-16.328,3.68c-6.553,1.83-12.626,3.744-18.147,5.744s-9.041,3.606-10.6,4.808c-1.819,1.851-3.67,6.925-5.489,15.19-9.828,50.579-8.743,43.92-9.828,50.579-1.032,6.68-17.6,7.659-16.116.138s3.35-11.924,5.723-23.678c4.584-23.742,3.68-18.253,6.436-35.73-1.554-3.351-5.223-4.287-11.031-2.734-4.617.9-8.148-.766-10.584-5.074-2.489-4.255-2.169-7.956.9-11a9.914,9.914,0,0,1,7.382-2.776c11.041,0,17.9-3.84,20.668-11.52,2.766-17.136,5.361-19.328,7.808-36.038s4.755-30.092,6.925-40.208c3.979-.308,7.095,1.372,9.425,5.042q3.462,5.5,1.585,14.254c-2.171,10.712-4.415,10.009-6.893,27.327-2.447,17.306-3.383,26.593-2.766,27.795.936,1.564,4.84,2.329,11.743,2.329a78.733,78.733,0,0,0,19.53-2.329,416.519,416.519,0,0,0,77.693-34.464q34.974-20.184,53.823-42.293,18.859-22.019,13.35-39.942-6.926-18.413-30.124-33.794-23.263-15.413-55.855-23.657a341.945,341.945,0,0,0-68.546-9.9,241.227,241.227,0,0,0-71.96,7.786q-36.075,9.462-62.758,28.763c-23.668,7-20.435-2.734,0-18.413q57.471-33.969,131.974-34.443a272.9,272.9,0,0,1,86.425,13.562q40.959,13.562,68.056,39.293,12.877,13.339,16.349,27.816c2.288,9.637,1.819,18.711-1.4,27.124a94.383,94.383,0,0,1-14.945,25.263,137.746,137.746,0,0,1-22.742,22.54,288.928,288.928,0,0,1-26.891,18.6q-14.281,8.776-25.305,14.275c-7.339,3.67-13.967,6.712-19.774,9.169-.925,2.138-1.053,3.542-.458,4.138.618.628,8.254,2.766,23,6.435a160.06,160.06,0,0,1,34.942,13.828c16.54,9.159,28.305,19.37,35.156,30.55q10.355,16.8,5.286,32.4c-3.34,10.424-9.957,20.4-19.752,29.879-44.123,42.623-118.369,45.473-175.479,53.887-48.3,7.116-94.4,6.744-142.867,6.659C999.427,455.7,991.907,455.3,984.345,454.552Z" transform="translate(-916.682 -80.277)" fill="#ffffff"/>
          <path id="パス_2" data-name="パス 2" d="M984.277,102.957q5.52.83,0,20.125c-1.213,4.287-2.723,9.446-4.574,15.413-1.83,5.989-2.989,9.807-3.457,11.5-.468,1.67-1.085,4.531-1.819,8.52a75.747,75.747,0,0,0-1.4,11.243q-.224,5.281-.692,14.966c-.3,8.254.309,14.551,1.862,18.828,3.957,10.137,11.626,10.573,22.965,1.4q16.116-12.892,20.232-30.826a178.7,178.7,0,0,1,6.233-20.221,186.117,186.117,0,0,1,8.723-19.519c3.53-6.9,6.042-12.2,7.594-15.892,3.947-6.446,7.042-10.626,9.18-12.615,2.16-1.915,4.286-2.649,6.446-2.1,3.351.287,5.361,1.83,5.978,4.585a72.845,72.845,0,0,1-6.446,27.369q-5.967,13.546-12.881,27.348c-4.6,9.212-7.51,17.945-8.68,26.22a8.166,8.166,0,0,0,6.4,5.489c3.053.649,6.733.181,11.042-1.33a102.893,102.893,0,0,0,14.009-6.446,171.047,171.047,0,0,0,16.083-10.127c5.691-4,11.265-7.967,16.807-11.967,5.5-3.978,10.956-8.19,16.3-12.637q8.043-6.654,14.264-11.945c4.138-3.553,7.978-6.765,11.51-9.68s5.733-4.829,6.658-5.733a21.406,21.406,0,0,1,11.042-4.585c3.362,0,3.956,1.532,1.83,4.585-5.829,5.84-11.67,11.477-17.477,17-5.818,5.542-13.636,12.637-23.454,21.412a275.337,275.337,0,0,1-28.039,22.072,279.854,279.854,0,0,1-27.146,16.094c-9.18,4.755-17.552,6.818-25.051,6.212-7.488-.649-13.263-4.021-17.242-10.137-9.8,13.445-19.072,22.678-27.815,27.592-8.712,4.9-16.414,4.212-22.965-2.074q-9.893-9.43-11.711-37.942a234.845,234.845,0,0,1,2.031-26.433,116.846,116.846,0,0,1,3.2-16.317c1.095-3.361,3-9.51,5.776-18.4.276-.915.83-2.425,1.6-4.606.766-2.138,1.319-3.606,1.616-4.351.308-.766.744-2.01,1.394-3.67a9.065,9.065,0,0,1,1.84-3.436c.586-.638,1.287-1.436,2.074-2.329a6.38,6.38,0,0,1,2.745-2A8.511,8.511,0,0,1,984.277,102.957Z" transform="translate(-512.929 138.291)" fill="#ffffff"/>
          <path id="パス_3" data-name="パス 3" d="M1206.691,81.686a5.625,5.625,0,0,1,5.063,3.244q3.207,20.726-4.85,45.548a244.6,244.6,0,0,1-22.487,49.2q-14.519,24.364-29.433,48.26a416.484,416.484,0,0,0-26.922,50.579q-11.937,26.694-14.254,48.3a119.156,119.156,0,0,0,3.244,38.144c3.052,11.956,6.553,19.157,10.563,21.625a11.434,11.434,0,0,0,5.957,1.372,44.592,44.592,0,0,0,9.658-1.372,75.611,75.611,0,0,0,14.488-5.308,154.853,154.853,0,0,0,18.412-10.084,271.193,271.193,0,0,0,23.2-16.785q13.337-10.578,28.071-24.4c7.031-5.478,11.647-7.329,13.775-5.51q2.776,4.164-4.117,11.031-79.107,76.794-113.571,64.4a52.1,52.1,0,0,1-9.679-8.265,34.687,34.687,0,0,1-6.659-12.2c-1.681-5.063-2.925-9.052-3.659-11.967-.787-2.925-1.808-7.956-3.01-15.168-1.244-7.18-1.989-11.722-2.287-13.583-1.564-.9-7.828,4.468-18.88,16.1a193.635,193.635,0,0,1-14.924,14.275c-5.69,4.882-12.5,10.339-20.476,16.306a129.308,129.308,0,0,1-23.455,14.264,110.71,110.71,0,0,1-23.21,7.829c-7.819,1.67-14.647.84-20.455-2.542a20.039,20.039,0,0,1-4.84-18.157,70.328,70.328,0,0,1,8.755-21.625q6.669-11.249,19.061-21.827a211.436,211.436,0,0,1,26.22-19.083,138.742,138.742,0,0,1,30.1-13.807,91.919,91.919,0,0,1,31.048-4.819c8.3-.936,13.34-2.457,15.191-4.606q2.727-3.239,7.328-22.54a682.67,682.67,0,0,1,21.625-68.035,590.213,590.213,0,0,1,34.5-75.64q20.647-38.389,39.984-53.153ZM1084.4,320.519a29.986,29.986,0,0,0-4.148.457q-35.422,4.18-61.854,25.763-26.423,21.62-28.731,44.133,4.116,8.265,27.134-3.893,22.977-12.222,44.825-32.911Q1083.434,333.406,1084.4,320.519Z" transform="translate(-388.682 -66.698)" fill="#ffffff"/>
        </g>
      </g>
      <g id="グループ_9" data-name="グループ 9" transform="translate(944.619 515.696)">
        <path id="パス_25" data-name="パス 25" d="M978.083,126.232a51.9,51.9,0,0,0,14.045,2.067,5.987,5.987,0,0,0-1.7,2.364,46.419,46.419,0,0,1-14.395-3.36,52.886,52.886,0,0,1-15.052,3.9l-.446-.965a45.311,45.311,0,0,0,13.346-3.933,29.823,29.823,0,0,1-6.254-4.293,28.5,28.5,0,0,1-10.239,7.993l-.615-.848A28.817,28.817,0,0,0,968,117.317H957.455l-.488-.954h11.48c.372-.827.805-1.887,1.283-3.275,2.162.445,3.243.89,3.243,1.314,0,.254-.445.477-1.346.7a11.411,11.411,0,0,1-.626,1.261h16.568l2-2.449.4.35a27.264,27.264,0,0,1,2.459,2.29l-.53.763H970.546a34.056,34.056,0,0,1-1.791,3.127h13.218l1.506-1.526c1.78,1.378,2.671,2.237,2.671,2.6,0,.148-.19.318-.53.4l-1.123.36A35.317,35.317,0,0,1,978.083,126.232ZM963.964,106.8h10.219l1.377-1.495a16.4,16.4,0,0,1,1.983,1.844l-.424.625H966.572a30.809,30.809,0,0,1-3.137,3.784c3.837-.159,6.985-.413,9.56-.742a10.769,10.769,0,0,0-2.512-2.173l.423-.572a11.16,11.16,0,0,1,4.537,2.4,2.837,2.837,0,0,1,1.144,2.035c0,.816-.371,1.23-1.186,1.23-.436,0-.849-.329-1.124-.954a3.853,3.853,0,0,0-.626-1.092c-3.148.689-7.589,1.346-13.3,2-.255.742-.552,1.113-.785,1.113-.5,0-.922-1.028-1.241-3.085.2,0,1.124-.032,2.736-.074l1.06-.042a18.562,18.562,0,0,0,1.6-3.827h-5.9l-.361-.975h4.4V96.743c1.028.435,1.9.784,2.512,1.1H972.5l1.495-1.7a20.671,20.671,0,0,1,2.109,2.035l-.434.678h-11.7v1.791h7.792l1.166-1.081a2.807,2.807,0,0,0,.466.339,14.458,14.458,0,0,1,1.188,1.081l-.392.6H963.964v1.993h7.792l1.166-1.208a17.522,17.522,0,0,1,1.717,1.569l-.413.625H963.964Zm11.83,18.6a35.986,35.986,0,0,0,6.18-3.964H968.607A31.937,31.937,0,0,0,975.794,125.405Zm.7-22.748a28.222,28.222,0,0,0,9.879-6.3c1.77,1.028,2.639,1.749,2.639,2.226,0,.244-.285.35-.784.35-.138,0-.424-.032-.9-.074a39.086,39.086,0,0,1-10.41,4.675Zm.094,10.833a31.658,31.658,0,0,0,12.89-7.219c1.686,1.007,2.545,1.738,2.545,2.226,0,.244-.265.4-.689.4a4.475,4.475,0,0,1-.986-.159,35.456,35.456,0,0,1-13.292,5.629Zm1.632-6a25.577,25.577,0,0,0,9.583-6.074c1.59.986,2.417,1.728,2.417,2.226,0,.244-.2.371-.594.371a4.084,4.084,0,0,1-1.07-.18,32.391,32.391,0,0,1-9.9,4.494Z" transform="translate(-956.777 -96.075)" fill="#ffffff" stroke="rgba(0,0,0,0)" stroke-width="1"/>
        <path id="パス_26" data-name="パス 26" d="M966.1,102.166h8.566l1.685-1.94.191.17c.339.371.965,1.007,1.834,2l-.414.742h-4.568v5.915H971.2v-5.915h-5.131a11.384,11.384,0,0,1-4.929,8.745l-.647-.7c2.269-2.449,3.393-5.724,3.393-9.794V97.248c1.038.4,1.844.763,2.417,1.039a38.315,38.315,0,0,0,8.6-2.131c1.389.922,2.036,1.569,2.036,2,0,.212-.223.329-.743.329a4.15,4.15,0,0,1-1.134-.17,80.358,80.358,0,0,1-8.958.965Zm-5.608,28.218a32,32,0,0,0,11.873-5.459c2,.986,2.989,1.7,2.989,2.12,0,.265-.318.371-.954.371-.106,0-.435-.021-1.007-.043a46.828,46.828,0,0,1-12.36,3.986Zm8.184-20.013H987.27l1.453-1.463c1.483.975,2.268,1.654,2.268,2.014,0,.127-.127.307-.36.5l-.784.6v12.731h-2.279v-.965h-19.3v1.548h-2.248v-16.08a19.989,19.989,0,0,1,2.248.912Zm18.89,3.943v-2.958h-19.3v2.958Zm0,.954h-19.3v3.159h19.3Zm0,7.537v-3.392h-19.3V122.8Zm-6-20.638h9.593l1.749-2.014a18.686,18.686,0,0,1,2.236,2.247l-.413.742H988.88v5.533h-2.258v-5.533h-5.108a8.939,8.939,0,0,1-4.77,6.763l-.583-.71c2.152-1.855,3.234-4.505,3.234-7.971V97.29a20.247,20.247,0,0,1,2.226.89,40.394,40.394,0,0,0,9.412-2.025c1.495.986,2.2,1.654,2.2,2.056,0,.223-.212.35-.688.35a6.138,6.138,0,0,1-1.283-.191,62.616,62.616,0,0,1-9.646.774v2.046A7.494,7.494,0,0,1,981.567,102.166Zm-.509,22.811c9.211,1.367,13.8,2.979,13.8,4.844,0,.8-.371,1.208-1.1,1.208a2.007,2.007,0,0,1-1.039-.307,41.9,41.9,0,0,0-12.128-4.865Z" transform="translate(-921.103 -96.008)" fill="#ffffff" stroke="rgba(0,0,0,0)" stroke-width="1"/>
        <path id="パス_27" data-name="パス 27" d="M968,110.692v12.667c0,.668.2,1.049.583,1.208a13.678,13.678,0,0,0,2.85.17c2.11,0,3.3-.085,3.648-.35.689-.413,1.155-2.47,1.388-6.19l1.018.318a20.891,20.891,0,0,0,.361,5.162,1.292,1.292,0,0,0,1.357.869,2.1,2.1,0,0,1-1.834,2.088,58.114,58.114,0,0,1-5.809.223c-2.661,0-4.272-.2-4.834-.541-.679-.318-.975-1.208-.975-2.608V108.551a27.073,27.073,0,0,1,2.48,1.166h6.732v-9.159H964.526l-.339-1h10.441l1.463-1.94c1.557,1.23,2.352,2.088,2.352,2.438a.6.6,0,0,1-.328.5l-.933.6v11.8h-2.216v-2.269Zm22.048,10.25a29.058,29.058,0,0,0,9.635,7.325,8.015,8.015,0,0,0-1.951,2.237,31.02,31.02,0,0,1-8.925-7.727,25.551,25.551,0,0,1-12.339,8.406l-.54-.869a25.453,25.453,0,0,0,11.66-9.434,36.224,36.224,0,0,1-4.41-12.36,35.449,35.449,0,0,1-4.664,7.749l-.849-.636q4.9-7.759,6.381-19.472c2.513.488,3.785,1.028,3.785,1.558,0,.3-.541.572-1.622.816-.4,1.908-.859,3.837-1.463,5.766H995.2l1.845-2.491a32.213,32.213,0,0,1,2.459,2.777l-.382.731h-4.219C994.1,111.858,992.521,117.031,990.051,120.942Zm-1.357-1.876a38.556,38.556,0,0,0,3.753-13.748h-7.992c-.127.318-.308.753-.5,1.293C985.239,112.038,986.829,116.2,988.694,119.066Z" transform="translate(-885.64 -95.979)" fill="#ffffff" stroke="rgba(0,0,0,0)" stroke-width="1"/>
        <path id="パス_28" data-name="パス 28" d="M989.947,117.289a27.772,27.772,0,0,0,2.278-5.47c2.2.753,3.339,1.357,3.339,1.866,0,.3-.529.5-1.621.583a22.663,22.663,0,0,1-2.64,3.021h6.805l1.983-2.47a17.991,17.991,0,0,1,2.543,2.735l-.4.7H968.407l-.488-.965h15.8v-5.756H968.746l-.466-.965h15.444v-3.318h-11.6l-.435-.986h12.031v-3.074h-13.95l-.413-1h18.02a29.206,29.206,0,0,0,2.4-6.053c2.31.763,3.529,1.452,3.529,1.982,0,.382-.541.6-1.7.678a27.972,27.972,0,0,1-2.734,3.159.509.509,0,0,1-.212.233h8.151l1.855-2.321a27.715,27.715,0,0,1,2.639,2.6l-.465.721H986.056v3.074h8.427l1.876-2.078a17.755,17.755,0,0,1,2.459,2.417l-.445.647H986.056v3.318h11.6l1.94-2.279a17.94,17.94,0,0,1,2.639,2.512l-.445.731H986.056v5.756Zm-14.025,4.219h17.85l1.559-1.717c1.653,1.145,2.48,1.887,2.48,2.29,0,.138-.127.318-.371.509l-1.018.678v8.141h-2.247v-2.067H975.435v2.067h-2.311V120.1A20.139,20.139,0,0,1,975.922,121.508Zm-1.356-9.614c3.073.965,4.6,2.226,4.6,3.784a1.221,1.221,0,0,1-1.346,1.4c-.573,0-.965-.4-1.2-1.177a5.954,5.954,0,0,0-2.5-3.307Zm.869,10.589v5.862h18.741v-5.862Zm1.579-26.246c3.212,1.092,4.8,2.459,4.8,4.092a1.583,1.583,0,0,1-.794,1.4,1.041,1.041,0,0,1-.669.2c-.656,0-1.081-.445-1.218-1.325a7.072,7.072,0,0,0-2.607-3.71Z" transform="translate(-849.812 -96.142)" fill="#ffffff" stroke="rgba(0,0,0,0)" stroke-width="1"/>
        <path id="パス_29" data-name="パス 29" d="M992.673,106.385v-5.6a6.452,6.452,0,0,0-.223-2.2c-.213-.445-.965-.869-2.162-1.24l.286-1.049a8.782,8.782,0,0,1,3.657.7c.86.392,1.261.859,1.261,1.378a2.888,2.888,0,0,1-.094.753c-.138.36-.149.572-.191.657-.159,1.3-.3,3.487-.35,6.487a17.564,17.564,0,0,0,4.856-.806,2.972,2.972,0,0,1,1.293-.318,5.362,5.362,0,0,1,2.045.647,1.277,1.277,0,0,1,.891,1.166c0,.774-.54,1.155-1.58,1.155-.106,0-.8-.032-2.024-.074-1.888-.1-3.7-.106-5.481-.1,0,4.537-.435,7.929-1.325,10.208q-2.718,7.107-11.862,9.975l-.477-1.049a22.96,22.96,0,0,0,7.208-4.569,13.685,13.685,0,0,0,3.085-5.12,30.3,30.3,0,0,0,1.144-9.349c-2.247.085-5.385.286-9.392.583v2.671c0,.848.043,1.823.075,2.915.032.36.032.763.032,1.124,0,1.505-.5,2.237-1.484,2.237a1.171,1.171,0,0,1-.891-.4,1.656,1.656,0,0,1-.244-.933c0-.254,0-.71.052-1.261.191-2.491.255-4.537.255-6.074a21.152,21.152,0,0,0-3.837.636,7.391,7.391,0,0,1-1.813.329,3.089,3.089,0,0,1-2.013-1.018,7.515,7.515,0,0,1-1.686-2.088l.731-.742a5.29,5.29,0,0,0,3.4,1.4c.689,0,2.449-.117,5.289-.276,0-1.749-.01-3.222-.074-4.463a12.505,12.505,0,0,0-.2-2.226c-.169-.594-.859-1.071-2.055-1.495l.254-1.028c2.957.085,4.42.784,4.42,2.056a3.642,3.642,0,0,1-.064.562,2.277,2.277,0,0,0-.042.382,13.744,13.744,0,0,0-.138,2.29V107C987.669,106.693,990.849,106.491,992.673,106.385Z" transform="translate(-813.668 -94.683)" fill="#ffffff" stroke="rgba(0,0,0,0)" stroke-width="1"/>
        <path id="パス_30" data-name="パス 30" d="M998.654,114.988a3.941,3.941,0,0,1,1.347.9,1.43,1.43,0,0,1,.3.7.7.7,0,0,1-.583.71,4.632,4.632,0,0,1-1.335.127c-5.024-.042-10.643.117-16.865.519a7.977,7.977,0,0,1-.286,2.48,1.086,1.086,0,0,1-1.008.6c-.773,0-1.176-.678-1.208-2.078-.064-2.131-.255-5.639-.456-10.568-.233-4.092-.435-6.742-.636-7.9a5.332,5.332,0,0,0-2.28-2.777l.615-.954a13.8,13.8,0,0,1,4.441,2.767q1.829-.127,8-.477c2.682-.148,4.781-.265,6.35-.318a4.632,4.632,0,0,0,2.565-.678,2.394,2.394,0,0,1,1.166-.583,3.267,3.267,0,0,1,1.644.986c.8.678,1.2,1.293,1.2,1.738,0,.3-.243.625-.71,1.007a2.6,2.6,0,0,0-.71,1.505C999.64,107.028,999.11,111.109,998.654,114.988Zm-2.279.382q.923-9.492,1.252-15.148c-6.922.392-12.6.731-17.067,1.06.244,4.9.488,9.826.764,14.808C988.33,115.688,993.355,115.412,996.375,115.37Z" transform="translate(-775.68 -90.248)" fill="#ffffff" stroke="rgba(0,0,0,0)" stroke-width="1"/>
        <path id="パス_31" data-name="パス 31" d="M979.986,96.64a16.618,16.618,0,0,1,6.72,3.381,4.53,4.53,0,0,1,1.718,3.042c0,1.346-.488,2.025-1.5,2.025-.4,0-.954-.53-1.548-1.558a17.143,17.143,0,0,0-5.894-5.957Zm.572,21.168c.689,1.039,1.4,1.579,2.152,1.579a9.294,9.294,0,0,0,3.763-1.3,52.466,52.466,0,0,0,19.738-17.384l.9.784a48,48,0,0,1-8.458,10.992,57.965,57.965,0,0,1-11.279,8.014,19.981,19.981,0,0,0-2.735,1.6,2.579,2.579,0,0,1-1.792.636c-.424,0-.965-.445-1.654-1.3a9.939,9.939,0,0,1-1.516-2.989Z" transform="translate(-738.854 -91.361)" fill="#ffffff" stroke="rgba(0,0,0,0)" stroke-width="1"/>
      </g>
    </g>
  </g>
</svg>
