<svg xmlns="http://www.w3.org/2000/svg" xmlns:xlink="http://www.w3.org/1999/xlink" width="1320" height="105" viewBox="0 0 1320 105">
  <defs>
    <clipPath id="clip-mv3">
      <rect width="1320" height="105"/>
    </clipPath>
  </defs>
  <g id="mv3" clip-path="url(#clip-mv3)">
    <g id="mv3-2" data-name="mv3" transform="translate(398.028 21.279)">
      <path id="パス_16" data-name="パス 16" d="M950.64,141.62q4.069-6.662,11.278-6.668a12.909,12.909,0,0,1,9.509,3.975c3.179,3.148,4.769,7.473,4.769,12.932s-1.612,9.869-4.823,13.091a13.268,13.268,0,0,1-9.615,4.06,12.755,12.755,0,0,1-10.971-5.661l-2.2,5.448H946.24V127.151c0-2.056-.487-3.275-1.452-3.657a13.4,13.4,0,0,0-4.294-.435V121A54.831,54.831,0,0,0,950.64,120Zm0,6.4v8.692c0,2.788,1.463,5.226,4.357,7.3a10.638,10.638,0,0,0,6.329,2.141c3.392,0,6.021-1.59,7.9-4.8a17.947,17.947,0,0,0,2.205-9.381c0-5.035-1.273-8.851-3.89-11.448a8.981,8.981,0,0,0-6.54-2.809c-3.308,0-6.085,1.526-8.3,4.622A9.481,9.481,0,0,0,950.64,148.023Z" transform="translate(-940.495 -112.724)" fill="#ffffff" stroke="rgba(0,0,0,0)" stroke-width="1"/>
      <path id="パス_17" data-name="パス 17" d="M980.479,123.356a5.789,5.789,0,0,0-5.692,3.816l-13.876,34.546c-1.526,3.88-3.87,5.82-6.975,5.82-3.2,0-4.791-1.261-4.791-3.816,0-2.12,1.059-3.2,3.179-3.2,1.93,0,2.9.944,2.9,2.873a2.21,2.21,0,0,1-.074.625l-.159.657c1.558-.085,2.809-1.431,3.784-4.113l2.618-7.038-11.354-25.578a9.873,9.873,0,0,0-2.352-3.636,5.874,5.874,0,0,0-3.5-.954V121.5h14.215v1.855c-2.9.074-4.367.784-4.367,2.215a6.048,6.048,0,0,0,.562,2l8.915,21,8.161-20.872a5.406,5.406,0,0,0,.5-1.855c0-1.611-1.58-2.417-4.633-2.491V121.5h12.933Z" transform="translate(-904.984 -98.276)" fill="#ffffff" stroke="rgba(0,0,0,0)" stroke-width="1"/>
      <path id="パス_18" data-name="パス 18" d="M963.631,147.591a29.722,29.722,0,0,1,6.827,4.039q3.45,2.592,3.456,4.759c0,1.569-.7,2.343-2.067,2.343-.785,0-1.495-.6-2.12-1.929a19.141,19.141,0,0,0-6.1-7.081v29.956h-3.773v-27.73a73.445,73.445,0,0,1-9.466,8.406l-1.04-1.208a82.916,82.916,0,0,0,18.657-25.409H951.133l-.6-1.706h9.424V119.384c4.3.212,6.445.784,6.445,1.76,0,.6-.954,1.2-2.841,1.791v9.095h4.091l2.481-3.244c2.81,2.449,4.229,3.986,4.229,4.59,0,.223-.19.435-.582.657l-1.845.89A82.958,82.958,0,0,1,963.631,147.591Zm39.38-23.066,3.413-4.251a31.431,31.431,0,0,1,4.664,4.558l-.721,1.336H973.732l-.582-1.643Zm-23.1,28.546h24.179l2.491-2.968c2.767,2.2,4.145,3.572,4.145,4.145a1.216,1.216,0,0,1-.6.88l-1.674,1.071v23.426h-3.891V176.3H979.023v3.328h-3.87V151.142C976.224,151.513,977.8,152.149,979.912,153.071Zm-.89,1.728v8.671h10.632V154.8Zm10.632,10.356H979.023v9.487h10.632Zm-6.127-32.33h16.081l2.427-2.947c2.734,2.067,4.08,3.382,4.08,3.954,0,.244-.19.5-.551.784l-1.612,1.156V148.46h-3.8v-2.629H983.092v3.01h-3.773V130.906A44.19,44.19,0,0,1,983.527,132.825Zm-.435,1.654v9.678h17.056v-9.678Zm21.465,28.991V154.8H993.513v8.671Zm0,11.173v-9.487H993.513v9.487Z" transform="translate(-855.467 -118.6)" fill="#ffffff" stroke="rgba(0,0,0,0)" stroke-width="1"/>
      <path id="パス_19" data-name="パス 19" d="M960.864,122.611h40.928l2.469-3.074c2.808,2.258,4.23,3.668,4.23,4.208,0,.276-.234.541-.679.848l-1.538,1.092v46.259c0,3.615-2.278,5.438-6.773,5.438a2.755,2.755,0,0,0-2.078-2.682,38.177,38.177,0,0,0-6.89-1.484v-1.654c3.615.318,6.593.488,8.893.488,1.632,0,2.555-.36,2.766-1.071a4.461,4.461,0,0,0,.128-1.039V124.265H960.206v53.043h-3.953V120.4A44.109,44.109,0,0,1,960.864,122.611Zm21.646,18.847V161.81h8.045v-15.2c4.123.2,6.181.731,6.181,1.622,0,.541-.838,1.134-2.481,1.791v17.363h-3.7v-3.9h-20V168.8h-3.636V146.811c4.166.265,6.212.848,6.212,1.728,0,.572-.826,1.134-2.575,1.749V161.81h8.268V141.458h-15.54l-.572-1.738h20.363a62.8,62.8,0,0,0,4.9-13.282c4.113,1.42,6.181,2.565,6.181,3.5,0,.583-.976.954-2.895,1.1a55.444,55.444,0,0,1-6,8.682H992.6l3.011-4.081a40.052,40.052,0,0,1,4.028,4.431l-.9,1.389Zm-13.123-14.766q8.236,4.293,8.236,8.894c0,1.77-.816,2.661-2.417,2.661-1.186,0-1.844-.657-2.045-1.919a14.848,14.848,0,0,0-4.7-8.363Z" transform="translate(-789.217 -117.131)" fill="#ffffff" stroke="rgba(0,0,0,0)" stroke-width="1"/>
      <path id="パス_20" data-name="パス 20" d="M993.371,160.195h19.462l3.5-4.3a31.826,31.826,0,0,1,4.43,4.632l-.805,1.336H994.145q8.014,11.13,28.462,13.557a14.5,14.5,0,0,0-3.159,4.208c-13.24-2.671-22.186-8.173-26.755-16.494-2.8,9.784-12.678,15.614-29.649,17.405l-.89-1.622q23.436-3.784,26.935-17.055H964.083l-.711-1.664h26.1a21.114,21.114,0,0,0,.18-2.565v-5.788c4.272.71,6.424,1.526,6.424,2.353,0,.5-.859.944-2.575,1.283v2.152C993.5,158.159,993.456,159.05,993.371,160.195Zm3.054-29.426a69,69,0,0,0,5.034-11.459c4.038,1.124,6.064,2.237,6.064,3.265,0,.551-.922.89-2.788.965a51.462,51.462,0,0,1-6.032,7.229h12.614l3.127-4.1a46.39,46.39,0,0,1,4.271,4.495l-.593,1.293h-24.4v7.6H1009.6l3.138-3.954a42.387,42.387,0,0,1,4.388,4.346l-.891,1.261H993.721v8.247h19.939l3.4-4.208a50.508,50.508,0,0,1,4.3,4.5l-.71,1.389H963.119l-.626-1.685h27.37v-8.247H968.418l-.689-1.654h22.134v-7.6H965.991l-.752-1.686ZM977.1,119.628q9.142,3.514,9.147,8.342a2.272,2.272,0,0,1-2.565,2.544c-1.028,0-1.7-.6-2-1.791a14.911,14.911,0,0,0-5.437-7.812Z" transform="translate(-732.566 -119.31)" fill="#ffffff" stroke="rgba(0,0,0,0)" stroke-width="1"/>
      <path id="パス_21" data-name="パス 21" d="M1004.885,170.961a87.062,87.062,0,0,0,24.083,3.53A10.778,10.778,0,0,0,1026,178.6c-9.985-1.007-18.243-2.915-24.656-5.788-7.007,3.159-15.592,5.353-25.779,6.657l-.8-1.6q13.865-2.162,22.876-6.795a48.842,48.842,0,0,1-10.707-7.346,48.711,48.711,0,0,1-17.521,13.674l-1.028-1.4q13.006-7.934,19.165-20.373H969.512l-.838-1.685h19.664c.636-1.367,1.357-3.233,2.236-5.533,3.731.742,5.576,1.473,5.576,2.2,0,.477-.785.869-2.4,1.177a9.744,9.744,0,0,1-1.008,2.152h28.388l3.466-4.134.7.594a35.968,35.968,0,0,1,4.145,3.975l-.869,1.251H991.963q-1.94,3.7-3.064,5.417h22.642l2.543-2.629c3.085,2.321,4.591,3.795,4.591,4.41,0,.318-.275.551-.869.742l-1.993.6A57.2,57.2,0,0,1,1004.885,170.961Zm-24.158-33.369H998.2l2.332-2.565a25.429,25.429,0,0,1,3.393,3.2l-.7,1.092H985.146a54.356,54.356,0,0,1-5.353,6.455c6.519-.307,11.968-.721,16.325-1.293a17.244,17.244,0,0,0-4.283-3.7l.753-1.018a20.068,20.068,0,0,1,7.79,4.092,5.12,5.12,0,0,1,1.983,3.477,1.879,1.879,0,0,1-2.078,2.152c-.795,0-1.421-.562-1.961-1.664a9.009,9.009,0,0,0-1.05-1.866,225.427,225.427,0,0,1-22.769,3.477c-.466,1.251-.891,1.866-1.367,1.866-.817,0-1.516-1.728-2.1-5.3.329,0,1.9-.032,4.653-.117l1.855-.042a33.516,33.516,0,0,0,2.7-6.519H970.137l-.625-1.728h7.526V120.377c1.845.731,3.308,1.346,4.326,1.876h13.96l2.513-2.873a28.3,28.3,0,0,1,3.583,3.424l-.669,1.177H980.726v3.085H994.04l1.94-1.866a3.263,3.263,0,0,0,.784.583c.975.806,1.675,1.442,2.1,1.866l-.668,1.081H980.726v3.381H994.04l1.94-2.035a19.433,19.433,0,0,1,2.946,2.661l-.689,1.1H980.726Zm20.215,31.97a62.347,62.347,0,0,0,10.6-6.848H988.592A53.75,53.75,0,0,0,1000.941,169.562Zm1.145-39.061a49.094,49.094,0,0,0,17.034-10.77c2.979,1.749,4.474,3,4.474,3.784,0,.392-.466.594-1.293.594-.233,0-.774-.032-1.6-.127a68.256,68.256,0,0,1-17.808,8.035Zm.254,18.571a54.093,54.093,0,0,0,22.048-12.36q4.388,2.544,4.388,3.774c0,.456-.4.668-1.188.668a10.719,10.719,0,0,1-1.717-.191,61.572,61.572,0,0,1-22.7,9.572Zm2.745-10.325a42.8,42.8,0,0,0,16.442-10.367c2.756,1.7,4.165,2.957,4.165,3.827,0,.382-.35.594-1.018.594a8.313,8.313,0,0,1-1.9-.265,55.288,55.288,0,0,1-16.917,7.706Z" transform="translate(-672.719 -118.628)" fill="#ffffff" stroke="rgba(0,0,0,0)" stroke-width="1"/>
      <path id="パス_22" data-name="パス 22" d="M987.673,143.394h7.2l2.407-3.032c2.554,2.2,3.816,3.615,3.816,4.2,0,.286-.17.509-.541.731l-1.611.943V172.29h-3.679v-4.145H986.94v7.293h-3.815V149.054a75.321,75.321,0,0,1-7.1,10.643l-1.421-1.018a77.524,77.524,0,0,0,12.169-32.807H976.86l-.5-1.632H996.1l3.105-4.357a28.11,28.11,0,0,1,3.965,4.738l-.711,1.251H991.2a92.971,92.971,0,0,1-5,16.7c.032.011.275.18.817.456l.19.106Zm-.732,1.675v21.412h8.322V145.068Zm40.567-19.239v21.063h2.734l2.9-4.653a37.75,37.75,0,0,1,3.763,4.9l-.762,1.41h-8.354v28.493h-3.975V148.545h-9.974q-.891,21.052-15.953,29.839l-1.145-1.41q12.371-9.19,13.23-28.43h-8.035l-.742-1.654h8.809V125.829h-5.788l-.847-1.654h25.271l3.222-4.622a32.231,32.231,0,0,1,4.155,4.95l-.753,1.325Zm-3.911,0h-9.689v21.063h9.689Z" transform="translate(-613.064 -116.968)" fill="#ffffff" stroke="rgba(0,0,0,0)" stroke-width="1"/>
      <path id="パス_23" data-name="パス 23" d="M1003.872,157.892H986.191l-.7-1.664h18.645c.1-1.516.149-2.512.149-3v-7.07c4.515.2,6.784.795,6.784,1.76,0,.519-.944,1.134-2.788,1.823v3.572c0,.572-.052,1.452-.138,2.608h11.533l2.544-2.968c2.713,2.067,4.1,3.371,4.1,3.954,0,.339-.2.594-.614.784l-1.664.986V172.3c0,1.124.349,1.823,1.049,2.067a16.17,16.17,0,0,0,3.434.2c3.71,0,5.788-.594,6.255-1.8a79.462,79.462,0,0,0,1.452-10.388l1.76.795c0,4.887.223,7.886.668,9.042.308.975,1.124,1.4,2.417,1.4-.074,1.919-.826,3.116-2.236,3.54-1.389.541-4.591.8-9.647.8-4.494,0-7.208-.4-8.034-1.272-.626-.519-.923-1.569-.923-3.106v-16h-12.222q-2.544,17.411-26,22.133l-.859-1.654C994.46,174.545,1002.06,167.771,1003.872,157.892Zm4.5-28.27v-10.25c4.493.074,6.752.6,6.752,1.611,0,.625-1,1.282-2.947,1.919v6.72h20.363l2.544-3.191c3.2,3.148,4.781,5.088,4.781,5.745,0,.329-.328.583-1.017.721l-2.407.382a38.8,38.8,0,0,1-6.593,4.473l-1.114-1.145a31.732,31.732,0,0,0,3.88-5.321h-14.978v9.964c0,1.113.361,1.749,1.05,1.972a34.539,34.539,0,0,0,5.894.318c4.483,0,7.007-.424,7.631-1.208.657-.943,1.124-2.83,1.357-5.618l1.718.541a18.9,18.9,0,0,0,.381,4.834,1.966,1.966,0,0,0,1.791,1.06,3.194,3.194,0,0,1-2.575,3.318c-1.114.307-4.6.456-10.42.456-4.707,0-7.686-.265-8.894-.763-1.145-.456-1.749-1.654-1.749-3.625V131.286H989.021v.445a18.409,18.409,0,0,1-1.579,7.929c-.912,1.855-2,2.777-3.3,2.777-1.664,0-2.449-.763-2.449-2.29a3.3,3.3,0,0,1,.944-1.993c2.523-2.459,3.89-6.222,4.251-11.289l1.58.339a15.193,15.193,0,0,1,.435,2.417Zm-25.833,21.6a34.923,34.923,0,0,0,18.73-18.264c3.933,1.06,5.916,2.057,5.916,2.968,0,.6-1.092,1-3.308,1.177q-6.47,11.083-20.489,15.54Z" transform="translate(-550.145 -118.724)" fill="#ffffff" stroke="rgba(0,0,0,0)" stroke-width="1"/>
      <path id="パス_24" data-name="パス 24" d="M997.217,136.1h12.276l2.427-3.222q3.88,3.164,3.879,4.229a.878.878,0,0,1-.519.763l-1.431.965v19.4h-3.858v-4.473H996.645c-.51,10.653-3.106,18.73-7.908,24.253l-1.4-1.049c3.658-6.042,5.5-14.66,5.5-25.78V133.815A28.956,28.956,0,0,1,997.217,136.1Zm13.039-11.2,3.3-4.378a37.19,37.19,0,0,1,4.293,4.781l-.626,1.24H990.274l-.582-1.643Zm-13.547,12.858v14.353h13.282V137.758Zm27.826,6.625c-.34,15.349-4.9,26.712-13.717,34.175l-1.293-1.187q11.049-12.4,11.077-33.613V124.625c1.8.806,3.117,1.442,4,1.919a54.556,54.556,0,0,0,15.625-7.039c3.01,1.94,4.494,3.307,4.494,4.081,0,.456-.445.668-1.335.668a16.649,16.649,0,0,1-1.961-.138,94.458,94.458,0,0,1-16.568,4.2l-.317.074v14.353h16.886l3.233-4.431a30.083,30.083,0,0,1,4.24,4.813l-.731,1.261h-9.476v33.507h-3.923V144.384Z" transform="translate(-490.806 -117.438)" fill="#ffffff" stroke="rgba(0,0,0,0)" stroke-width="1"/>
    </g>
  </g>
</svg>
