<svg xmlns="http://www.w3.org/2000/svg" xmlns:xlink="http://www.w3.org/1999/xlink" width="239.358" height="146" viewBox="0 0 239.358 146">
  <defs>
    <filter id="合体_1" x="0" y="0" width="239.358" height="146" filterUnits="userSpaceOnUse">
      <feOffset dy="3" input="SourceAlpha"/>
      <feGaussianBlur stdDeviation="3" result="blur"/>
      <feFlood flood-opacity="0.161"/>
      <feComposite operator="in" in2="blur"/>
      <feComposite in="SourceGraphic"/>
    </filter>
  </defs>
  <g id="imadake" transform="translate(-139.5 -14.158)">
    <g transform="matrix(1, 0, 0, 1, 139.5, 14.16)" filter="url(#合体_1)">
      <path id="合体_1-2" data-name="合体 1" d="M157.181,106.028c-15.459,2.648-31.456,2.929-47,3.24-23.447-.47-47.916-.87-70.026-9.425-21.53-8.07-40.7-24.3-40.14-45.209C-.55,33.721,18.622,17.5,40.152,9.425,62.262.87,86.731.47,110.178,0c23.447.47,47.916.87,70.027,9.425,21.53,8.07,40.7,24.3,40.14,45.209.561,20.913-18.61,37.138-40.14,45.209q-2.828,1.094-5.7,2.015L186.951,126Z" transform="translate(9.5 6.5)" fill="#e56c5c" stroke="rgba(0,0,0,0)" stroke-miterlimit="10" stroke-width="1"/>
    </g>
    <path id="パス_42" data-name="パス 42" d="M47.55-25.35A2.71,2.71,0,0,0,46-27.8C36.85-31.55,31.15-37,28.45-41.05c-.2-1.5-1.6-1.95-2.9-1.95a4.976,4.976,0,0,0-4.4,2c-2.6,3.8-8.3,9.2-17,13A2.651,2.651,0,0,0,2.7-25.55c0,1.7,1.4,3.65,3.2,3.65a2.245,2.245,0,0,0,.95-.2c7.7-4,13.65-8.5,17.95-13.3a59.413,59.413,0,0,0,10.3,8.95,3.479,3.479,0,0,0-.8-.1H15.35c-1.45,0-2.15.7-2.15,2.75s.7,2.7,2.15,2.7H34.3c1.45,0,2.2-.65,2.2-2.7a3.26,3.26,0,0,0-.5-2.05c1.35.9,6.65,4.3,8.15,4.3C46-21.55,47.55-23.55,47.55-25.35Zm-3.3,11.8c0-3.25-2.9-4.05-5.6-4.05H7.6c-1.55,0-2.3.75-2.3,2.9s.75,2.85,2.3,2.85H35.7c.4,0,.6.15.6.35a.691.691,0,0,1-.25.45,39.277,39.277,0,0,1-15.5,9.6A1.984,1.984,0,0,0,19.3.35,3.751,3.751,0,0,0,22.75,3.8c4.3,0,16.8-10.2,19.95-13.75A5.363,5.363,0,0,0,44.25-13.55Zm51.6-23.4-3.25-3.9c-.4-.5-1.25-.5-1.95.15a1.4,1.4,0,0,0-.45,1.9l3.25,3.9a1.356,1.356,0,0,0,1.95-.05C96.15-35.6,96.3-36.45,95.85-36.95Zm-4.5,3.5-3.25-3.9a1.363,1.363,0,0,0-1.95.1c-.75.65-.9,1.45-.45,1.9l3.25,3.9c.4.5,1.25.5,1.95-.15C91.65-32.15,91.8-32.95,91.35-33.45Zm4,10.55c.35-1.9-.5-3.35-1.75-3.55-6.5-1.05-10.5-1.2-14.25-.85-1.15.1-2,1.2-2.15,2.95a2.313,2.313,0,0,0,2.15,2.7,48.553,48.553,0,0,1,13.1,1.3C93.7-20.05,95-21.1,95.35-22.9Zm1.2,21.1A2.77,2.77,0,0,0,93.5-4.7c-3.3.4-8.35.7-9.7.7-6.1,0-7.15-.9-7.15-3.6a13.964,13.964,0,0,1,.6-3.05c.3-1.05-.45-2.25-2.05-2.55-1.6-.25-2.85.3-3.2,1.4a22.085,22.085,0,0,0-1.2,6.2c0,2.9,1.7,7.6,9.85,7.6,3.4,0,7.6-.15,13.45-.4C95.5,1.55,96.55.15,96.55-1.8Zm-19.1-28a2.579,2.579,0,0,0-3.05-2.45c-1.45.35-3.4.75-5.65,1.1.6-2.65,1.1-5,1.55-6.9.3-1.4-.85-2.9-3-3.2-2.15-.35-3.7.75-3.85,2.2-.25,2.25-.7,5.3-1.3,8.65a56.273,56.273,0,0,1-7.05.15c-1.35-.1-2.55,1.2-2.4,3.15.15,1.9,1.2,3.15,2.55,3.15,2,0,3.9-.1,5.7-.25C59.2-15.6,56.85-6.05,54.5.05,54,1.35,54.8,3,56.8,3.6c1.95.55,3.65-.15,4-1.45,1.65-5.8,4.3-17.2,6.5-27,3.4-.45,6.25-1.05,8.3-1.45C76.85-26.55,77.6-27.95,77.45-29.8Zm69.75,2.1c0-1.9-1.35-3.05-2.65-2.8-1.55.3-3.3.55-5.05.75-.15-3.75-.35-6.9-.45-9.4-.05-1.4-1.4-2.4-3.35-2.45a2.693,2.693,0,0,0-2.95,2.7c.25,2.4.45,6.05.55,9.8a86.812,86.812,0,0,1-12.7.25,2.779,2.779,0,0,0-3.05,2.9c.1,2,1.1,3.4,2.45,3.5a114.931,114.931,0,0,0,13.45-.35c.05,2.5.1,4.75.1,6.3,0,6.05-1.3,9.5-7.1,16.35-.8.9-.5,2.55,1.05,3.65s3.1,1.05,3.95.1c6.3-7.4,8.3-12,8.3-19.2,0-2.8-.05-5.4-.1-7.8,2-.25,3.85-.5,5.4-.75C146.35-24.35,147.2-25.75,147.2-27.7ZM117.9-8.25c.55-.8.25-1.9-.85-2.85-1.1-1-2.35-.7-2.8.1-.8,1.4-1.85,3.2-2.55,4.3a.549.549,0,0,1-1.05-.2c-.25-1.6-.5-5.5-.5-13.6a101,101,0,0,1,2.1-17.05c.3-1.3-.75-2.65-2.65-2.9s-3.35.65-3.55,1.95c-.7,4.6-1.9,13.3-1.9,18.15A124.681,124.681,0,0,0,105.95.7c.2,1,1.1,1.85,2.65,2.3,1.5.45,2.75,0,3.25-1C112.85,0,115-3.7,117.9-8.25Z" transform="translate(184 92)" fill="#fff"/>
  </g>
</svg>
