<svg xmlns="http://www.w3.org/2000/svg" xmlns:xlink="http://www.w3.org/1999/xlink" width="1320" height="674" viewBox="0 0 1320 674">
  <defs>
    <clipPath id="clip-_1920_Web_1">
      <rect width="1320" height="674"/>
    </clipPath>
  </defs>
  <g id="_1920_Web_1" data-name="1920 Web – 1" clip-path="url(#clip-_1920_Web_1)">
    <rect width="1320" height="674" fill="#fff"/>
    <g id="グループ_11" data-name="グループ 11" transform="translate(-374 -197)">
      <g id="mv3" transform="translate(772.028 761.279)">
        <path id="パス_16" data-name="パス 16" d="M950.64,141.62q4.069-6.662,11.278-6.668a12.909,12.909,0,0,1,9.509,3.975c3.179,3.148,4.769,7.473,4.769,12.932s-1.612,9.869-4.823,13.091a13.268,13.268,0,0,1-9.615,4.06,12.755,12.755,0,0,1-10.971-5.661l-2.2,5.448H946.24V127.151c0-2.056-.487-3.275-1.452-3.657a13.4,13.4,0,0,0-4.294-.435V121A54.831,54.831,0,0,0,950.64,120Zm0,6.4v8.692c0,2.788,1.463,5.226,4.357,7.3a10.638,10.638,0,0,0,6.329,2.141c3.392,0,6.021-1.59,7.9-4.8a17.947,17.947,0,0,0,2.205-9.381c0-5.035-1.273-8.851-3.89-11.448a8.981,8.981,0,0,0-6.54-2.809c-3.308,0-6.085,1.526-8.3,4.622A9.481,9.481,0,0,0,950.64,148.023Z" transform="translate(-940.495 -112.724)" fill="#1a1a1a" stroke="rgba(0,0,0,0)" stroke-width="1"/>
        <path id="パス_17" data-name="パス 17" d="M980.479,123.356a5.789,5.789,0,0,0-5.692,3.816l-13.876,34.546c-1.526,3.88-3.87,5.82-6.975,5.82-3.2,0-4.791-1.261-4.791-3.816,0-2.12,1.059-3.2,3.179-3.2,1.93,0,2.9.944,2.9,2.873a2.21,2.21,0,0,1-.074.625l-.159.657c1.558-.085,2.809-1.431,3.784-4.113l2.618-7.038-11.354-25.578a9.873,9.873,0,0,0-2.352-3.636,5.874,5.874,0,0,0-3.5-.954V121.5h14.215v1.855c-2.9.074-4.367.784-4.367,2.215a6.048,6.048,0,0,0,.562,2l8.915,21,8.161-20.872a5.406,5.406,0,0,0,.5-1.855c0-1.611-1.58-2.417-4.633-2.491V121.5h12.933Z" transform="translate(-904.984 -98.276)" fill="#1a1a1a" stroke="rgba(0,0,0,0)" stroke-width="1"/>
        <path id="パス_18" data-name="パス 18" d="M963.631,147.591a29.722,29.722,0,0,1,6.827,4.039q3.45,2.592,3.456,4.759c0,1.569-.7,2.343-2.067,2.343-.785,0-1.495-.6-2.12-1.929a19.141,19.141,0,0,0-6.1-7.081v29.956h-3.773v-27.73a73.445,73.445,0,0,1-9.466,8.406l-1.04-1.208a82.916,82.916,0,0,0,18.657-25.409H951.133l-.6-1.706h9.424V119.384c4.3.212,6.445.784,6.445,1.76,0,.6-.954,1.2-2.841,1.791v9.095h4.091l2.481-3.244c2.81,2.449,4.229,3.986,4.229,4.59,0,.223-.19.435-.582.657l-1.845.89A82.958,82.958,0,0,1,963.631,147.591Zm39.38-23.066,3.413-4.251a31.431,31.431,0,0,1,4.664,4.558l-.721,1.336H973.732l-.582-1.643Zm-23.1,28.546h24.179l2.491-2.968c2.767,2.2,4.145,3.572,4.145,4.145a1.216,1.216,0,0,1-.6.88l-1.674,1.071v23.426h-3.891V176.3H979.023v3.328h-3.87V151.142C976.224,151.513,977.8,152.149,979.912,153.071Zm-.89,1.728v8.671h10.632V154.8Zm10.632,10.356H979.023v9.487h10.632Zm-6.127-32.33h16.081l2.427-2.947c2.734,2.067,4.08,3.382,4.08,3.954,0,.244-.19.5-.551.784l-1.612,1.156V148.46h-3.8v-2.629H983.092v3.01h-3.773V130.906A44.19,44.19,0,0,1,983.527,132.825Zm-.435,1.654v9.678h17.056v-9.678Zm21.465,28.991V154.8H993.513v8.671Zm0,11.173v-9.487H993.513v9.487Z" transform="translate(-855.467 -118.6)" fill="#1a1a1a" stroke="rgba(0,0,0,0)" stroke-width="1"/>
        <path id="パス_19" data-name="パス 19" d="M960.864,122.611h40.928l2.469-3.074c2.808,2.258,4.23,3.668,4.23,4.208,0,.276-.234.541-.679.848l-1.538,1.092v46.259c0,3.615-2.278,5.438-6.773,5.438a2.755,2.755,0,0,0-2.078-2.682,38.177,38.177,0,0,0-6.89-1.484v-1.654c3.615.318,6.593.488,8.893.488,1.632,0,2.555-.36,2.766-1.071a4.461,4.461,0,0,0,.128-1.039V124.265H960.206v53.043h-3.953V120.4A44.109,44.109,0,0,1,960.864,122.611Zm21.646,18.847V161.81h8.045v-15.2c4.123.2,6.181.731,6.181,1.622,0,.541-.838,1.134-2.481,1.791v17.363h-3.7v-3.9h-20V168.8h-3.636V146.811c4.166.265,6.212.848,6.212,1.728,0,.572-.826,1.134-2.575,1.749V161.81h8.268V141.458h-15.54l-.572-1.738h20.363a62.8,62.8,0,0,0,4.9-13.282c4.113,1.42,6.181,2.565,6.181,3.5,0,.583-.976.954-2.895,1.1a55.444,55.444,0,0,1-6,8.682H992.6l3.011-4.081a40.052,40.052,0,0,1,4.028,4.431l-.9,1.389Zm-13.123-14.766q8.236,4.293,8.236,8.894c0,1.77-.816,2.661-2.417,2.661-1.186,0-1.844-.657-2.045-1.919a14.848,14.848,0,0,0-4.7-8.363Z" transform="translate(-789.217 -117.131)" fill="#1a1a1a" stroke="rgba(0,0,0,0)" stroke-width="1"/>
        <path id="パス_20" data-name="パス 20" d="M993.371,160.195h19.462l3.5-4.3a31.826,31.826,0,0,1,4.43,4.632l-.805,1.336H994.145q8.014,11.13,28.462,13.557a14.5,14.5,0,0,0-3.159,4.208c-13.24-2.671-22.186-8.173-26.755-16.494-2.8,9.784-12.678,15.614-29.649,17.405l-.89-1.622q23.436-3.784,26.935-17.055H964.083l-.711-1.664h26.1a21.114,21.114,0,0,0,.18-2.565v-5.788c4.272.71,6.424,1.526,6.424,2.353,0,.5-.859.944-2.575,1.283v2.152C993.5,158.159,993.456,159.05,993.371,160.195Zm3.054-29.426a69,69,0,0,0,5.034-11.459c4.038,1.124,6.064,2.237,6.064,3.265,0,.551-.922.89-2.788.965a51.462,51.462,0,0,1-6.032,7.229h12.614l3.127-4.1a46.39,46.39,0,0,1,4.271,4.495l-.593,1.293h-24.4v7.6H1009.6l3.138-3.954a42.387,42.387,0,0,1,4.388,4.346l-.891,1.261H993.721v8.247h19.939l3.4-4.208a50.508,50.508,0,0,1,4.3,4.5l-.71,1.389H963.119l-.626-1.685h27.37v-8.247H968.418l-.689-1.654h22.134v-7.6H965.991l-.752-1.686ZM977.1,119.628q9.142,3.514,9.147,8.342a2.272,2.272,0,0,1-2.565,2.544c-1.028,0-1.7-.6-2-1.791a14.911,14.911,0,0,0-5.437-7.812Z" transform="translate(-732.566 -119.31)" fill="#1a1a1a" stroke="rgba(0,0,0,0)" stroke-width="1"/>
        <path id="パス_21" data-name="パス 21" d="M1004.885,170.961a87.062,87.062,0,0,0,24.083,3.53A10.778,10.778,0,0,0,1026,178.6c-9.985-1.007-18.243-2.915-24.656-5.788-7.007,3.159-15.592,5.353-25.779,6.657l-.8-1.6q13.865-2.162,22.876-6.795a48.842,48.842,0,0,1-10.707-7.346,48.711,48.711,0,0,1-17.521,13.674l-1.028-1.4q13.006-7.934,19.165-20.373H969.512l-.838-1.685h19.664c.636-1.367,1.357-3.233,2.236-5.533,3.731.742,5.576,1.473,5.576,2.2,0,.477-.785.869-2.4,1.177a9.744,9.744,0,0,1-1.008,2.152h28.388l3.466-4.134.7.594a35.968,35.968,0,0,1,4.145,3.975l-.869,1.251H991.963q-1.94,3.7-3.064,5.417h22.642l2.543-2.629c3.085,2.321,4.591,3.795,4.591,4.41,0,.318-.275.551-.869.742l-1.993.6A57.2,57.2,0,0,1,1004.885,170.961Zm-24.158-33.369H998.2l2.332-2.565a25.429,25.429,0,0,1,3.393,3.2l-.7,1.092H985.146a54.356,54.356,0,0,1-5.353,6.455c6.519-.307,11.968-.721,16.325-1.293a17.244,17.244,0,0,0-4.283-3.7l.753-1.018a20.068,20.068,0,0,1,7.79,4.092,5.12,5.12,0,0,1,1.983,3.477,1.879,1.879,0,0,1-2.078,2.152c-.795,0-1.421-.562-1.961-1.664a9.009,9.009,0,0,0-1.05-1.866,225.427,225.427,0,0,1-22.769,3.477c-.466,1.251-.891,1.866-1.367,1.866-.817,0-1.516-1.728-2.1-5.3.329,0,1.9-.032,4.653-.117l1.855-.042a33.516,33.516,0,0,0,2.7-6.519H970.137l-.625-1.728h7.526V120.377c1.845.731,3.308,1.346,4.326,1.876h13.96l2.513-2.873a28.3,28.3,0,0,1,3.583,3.424l-.669,1.177H980.726v3.085H994.04l1.94-1.866a3.263,3.263,0,0,0,.784.583c.975.806,1.675,1.442,2.1,1.866l-.668,1.081H980.726v3.381H994.04l1.94-2.035a19.433,19.433,0,0,1,2.946,2.661l-.689,1.1H980.726Zm20.215,31.97a62.347,62.347,0,0,0,10.6-6.848H988.592A53.75,53.75,0,0,0,1000.941,169.562Zm1.145-39.061a49.094,49.094,0,0,0,17.034-10.77c2.979,1.749,4.474,3,4.474,3.784,0,.392-.466.594-1.293.594-.233,0-.774-.032-1.6-.127a68.256,68.256,0,0,1-17.808,8.035Zm.254,18.571a54.093,54.093,0,0,0,22.048-12.36q4.388,2.544,4.388,3.774c0,.456-.4.668-1.188.668a10.719,10.719,0,0,1-1.717-.191,61.572,61.572,0,0,1-22.7,9.572Zm2.745-10.325a42.8,42.8,0,0,0,16.442-10.367c2.756,1.7,4.165,2.957,4.165,3.827,0,.382-.35.594-1.018.594a8.313,8.313,0,0,1-1.9-.265,55.288,55.288,0,0,1-16.917,7.706Z" transform="translate(-672.719 -118.628)" fill="#1a1a1a" stroke="rgba(0,0,0,0)" stroke-width="1"/>
        <path id="パス_22" data-name="パス 22" d="M987.673,143.394h7.2l2.407-3.032c2.554,2.2,3.816,3.615,3.816,4.2,0,.286-.17.509-.541.731l-1.611.943V172.29h-3.679v-4.145H986.94v7.293h-3.815V149.054a75.321,75.321,0,0,1-7.1,10.643l-1.421-1.018a77.524,77.524,0,0,0,12.169-32.807H976.86l-.5-1.632H996.1l3.105-4.357a28.11,28.11,0,0,1,3.965,4.738l-.711,1.251H991.2a92.971,92.971,0,0,1-5,16.7c.032.011.275.18.817.456l.19.106Zm-.732,1.675v21.412h8.322V145.068Zm40.567-19.239v21.063h2.734l2.9-4.653a37.75,37.75,0,0,1,3.763,4.9l-.762,1.41h-8.354v28.493h-3.975V148.545h-9.974q-.891,21.052-15.953,29.839l-1.145-1.41q12.371-9.19,13.23-28.43h-8.035l-.742-1.654h8.809V125.829h-5.788l-.847-1.654h25.271l3.222-4.622a32.231,32.231,0,0,1,4.155,4.95l-.753,1.325Zm-3.911,0h-9.689v21.063h9.689Z" transform="translate(-613.064 -116.968)" fill="#1a1a1a" stroke="rgba(0,0,0,0)" stroke-width="1"/>
        <path id="パス_23" data-name="パス 23" d="M1003.872,157.892H986.191l-.7-1.664h18.645c.1-1.516.149-2.512.149-3v-7.07c4.515.2,6.784.795,6.784,1.76,0,.519-.944,1.134-2.788,1.823v3.572c0,.572-.052,1.452-.138,2.608h11.533l2.544-2.968c2.713,2.067,4.1,3.371,4.1,3.954,0,.339-.2.594-.614.784l-1.664.986V172.3c0,1.124.349,1.823,1.049,2.067a16.17,16.17,0,0,0,3.434.2c3.71,0,5.788-.594,6.255-1.8a79.462,79.462,0,0,0,1.452-10.388l1.76.795c0,4.887.223,7.886.668,9.042.308.975,1.124,1.4,2.417,1.4-.074,1.919-.826,3.116-2.236,3.54-1.389.541-4.591.8-9.647.8-4.494,0-7.208-.4-8.034-1.272-.626-.519-.923-1.569-.923-3.106v-16h-12.222q-2.544,17.411-26,22.133l-.859-1.654C994.46,174.545,1002.06,167.771,1003.872,157.892Zm4.5-28.27v-10.25c4.493.074,6.752.6,6.752,1.611,0,.625-1,1.282-2.947,1.919v6.72h20.363l2.544-3.191c3.2,3.148,4.781,5.088,4.781,5.745,0,.329-.328.583-1.017.721l-2.407.382a38.8,38.8,0,0,1-6.593,4.473l-1.114-1.145a31.732,31.732,0,0,0,3.88-5.321h-14.978v9.964c0,1.113.361,1.749,1.05,1.972a34.539,34.539,0,0,0,5.894.318c4.483,0,7.007-.424,7.631-1.208.657-.943,1.124-2.83,1.357-5.618l1.718.541a18.9,18.9,0,0,0,.381,4.834,1.966,1.966,0,0,0,1.791,1.06,3.194,3.194,0,0,1-2.575,3.318c-1.114.307-4.6.456-10.42.456-4.707,0-7.686-.265-8.894-.763-1.145-.456-1.749-1.654-1.749-3.625V131.286H989.021v.445a18.409,18.409,0,0,1-1.579,7.929c-.912,1.855-2,2.777-3.3,2.777-1.664,0-2.449-.763-2.449-2.29a3.3,3.3,0,0,1,.944-1.993c2.523-2.459,3.89-6.222,4.251-11.289l1.58.339a15.193,15.193,0,0,1,.435,2.417Zm-25.833,21.6a34.923,34.923,0,0,0,18.73-18.264c3.933,1.06,5.916,2.057,5.916,2.968,0,.6-1.092,1-3.308,1.177q-6.47,11.083-20.489,15.54Z" transform="translate(-550.145 -118.724)" fill="#1a1a1a" stroke="rgba(0,0,0,0)" stroke-width="1"/>
        <path id="パス_24" data-name="パス 24" d="M997.217,136.1h12.276l2.427-3.222q3.88,3.164,3.879,4.229a.878.878,0,0,1-.519.763l-1.431.965v19.4h-3.858v-4.473H996.645c-.51,10.653-3.106,18.73-7.908,24.253l-1.4-1.049c3.658-6.042,5.5-14.66,5.5-25.78V133.815A28.956,28.956,0,0,1,997.217,136.1Zm13.039-11.2,3.3-4.378a37.19,37.19,0,0,1,4.293,4.781l-.626,1.24H990.274l-.582-1.643Zm-13.547,12.858v14.353h13.282V137.758Zm27.826,6.625c-.34,15.349-4.9,26.712-13.717,34.175l-1.293-1.187q11.049-12.4,11.077-33.613V124.625c1.8.806,3.117,1.442,4,1.919a54.556,54.556,0,0,0,15.625-7.039c3.01,1.94,4.494,3.307,4.494,4.081,0,.456-.445.668-1.335.668a16.649,16.649,0,0,1-1.961-.138,94.458,94.458,0,0,1-16.568,4.2l-.317.074v14.353h16.886l3.233-4.431a30.083,30.083,0,0,1,4.24,4.813l-.731,1.261h-9.476v33.507h-3.923V144.384Z" transform="translate(-490.806 -117.438)" fill="#1a1a1a" stroke="rgba(0,0,0,0)" stroke-width="1"/>
      </g>
      <g id="mv2">
        <g id="レイヤー_1" data-name="レイヤー 1" transform="translate(514.608 346.222)">
          <g id="グループ_1" data-name="グループ 1">
            <path id="パス_1" data-name="パス 1" d="M984.345,454.552A230.245,230.245,0,0,1,932.3,443.17c-9.211-3.244-14.4-5.776-15.615-7.584q0-1.388,35.846,3.638c80,12.413,161.225.649,240.6-10.892,42.176-6.127,92.244-16.987,123.655-47.994q35.438-34.911-24.806-67.12Q1257,294.39,1222.529,294.358h-2.277q-6.03,0-11.062.479a132.092,132.092,0,0,0-16.328,3.68c-6.553,1.83-12.626,3.744-18.147,5.744s-9.041,3.606-10.6,4.808c-1.819,1.851-3.67,6.925-5.489,15.19-9.828,50.579-8.743,43.92-9.828,50.579-1.032,6.68-17.6,7.659-16.116.138s3.35-11.924,5.723-23.678c4.584-23.742,3.68-18.253,6.436-35.73-1.554-3.351-5.223-4.287-11.031-2.734-4.617.9-8.148-.766-10.584-5.074-2.489-4.255-2.169-7.956.9-11a9.914,9.914,0,0,1,7.382-2.776c11.041,0,17.9-3.84,20.668-11.52,2.766-17.136,5.361-19.328,7.808-36.038s4.755-30.092,6.925-40.208c3.979-.308,7.095,1.372,9.425,5.042q3.462,5.5,1.585,14.254c-2.171,10.712-4.415,10.009-6.893,27.327-2.447,17.306-3.383,26.593-2.766,27.795.936,1.564,4.84,2.329,11.743,2.329a78.733,78.733,0,0,0,19.53-2.329,416.519,416.519,0,0,0,77.693-34.464q34.974-20.184,53.823-42.293,18.859-22.019,13.35-39.942-6.926-18.413-30.124-33.794-23.263-15.413-55.855-23.657a341.945,341.945,0,0,0-68.546-9.9,241.227,241.227,0,0,0-71.96,7.786q-36.075,9.462-62.758,28.763c-23.668,7-20.435-2.734,0-18.413q57.471-33.969,131.974-34.443a272.9,272.9,0,0,1,86.425,13.562q40.959,13.562,68.056,39.293,12.877,13.339,16.349,27.816c2.288,9.637,1.819,18.711-1.4,27.124a94.383,94.383,0,0,1-14.945,25.263,137.746,137.746,0,0,1-22.742,22.54,288.928,288.928,0,0,1-26.891,18.6q-14.281,8.776-25.305,14.275c-7.339,3.67-13.967,6.712-19.774,9.169-.925,2.138-1.053,3.542-.458,4.138.618.628,8.254,2.766,23,6.435a160.06,160.06,0,0,1,34.942,13.828c16.54,9.159,28.305,19.37,35.156,30.55q10.355,16.8,5.286,32.4c-3.34,10.424-9.957,20.4-19.752,29.879-44.123,42.623-118.369,45.473-175.479,53.887-48.3,7.116-94.4,6.744-142.867,6.659C999.427,455.7,991.907,455.3,984.345,454.552Z" transform="translate(-916.682 -80.277)" fill="#7fa581"/>
            <path id="パス_2" data-name="パス 2" d="M984.277,102.957q5.52.83,0,20.125c-1.213,4.287-2.723,9.446-4.574,15.413-1.83,5.989-2.989,9.807-3.457,11.5-.468,1.67-1.085,4.531-1.819,8.52a75.747,75.747,0,0,0-1.4,11.243q-.224,5.281-.692,14.966c-.3,8.254.309,14.551,1.862,18.828,3.957,10.137,11.626,10.573,22.965,1.4q16.116-12.892,20.232-30.826a178.7,178.7,0,0,1,6.233-20.221,186.117,186.117,0,0,1,8.723-19.519c3.53-6.9,6.042-12.2,7.594-15.892,3.947-6.446,7.042-10.626,9.18-12.615,2.16-1.915,4.286-2.649,6.446-2.1,3.351.287,5.361,1.83,5.978,4.585a72.845,72.845,0,0,1-6.446,27.369q-5.967,13.546-12.881,27.348c-4.6,9.212-7.51,17.945-8.68,26.22a8.166,8.166,0,0,0,6.4,5.489c3.053.649,6.733.181,11.042-1.33a102.893,102.893,0,0,0,14.009-6.446,171.047,171.047,0,0,0,16.083-10.127c5.691-4,11.265-7.967,16.807-11.967,5.5-3.978,10.956-8.19,16.3-12.637q8.043-6.654,14.264-11.945c4.138-3.553,7.978-6.765,11.51-9.68s5.733-4.829,6.658-5.733a21.406,21.406,0,0,1,11.042-4.585c3.362,0,3.956,1.532,1.83,4.585-5.829,5.84-11.67,11.477-17.477,17-5.818,5.542-13.636,12.637-23.454,21.412a275.337,275.337,0,0,1-28.039,22.072,279.854,279.854,0,0,1-27.146,16.094c-9.18,4.755-17.552,6.818-25.051,6.212-7.488-.649-13.263-4.021-17.242-10.137-9.8,13.445-19.072,22.678-27.815,27.592-8.712,4.9-16.414,4.212-22.965-2.074q-9.893-9.43-11.711-37.942a234.845,234.845,0,0,1,2.031-26.433,116.846,116.846,0,0,1,3.2-16.317c1.095-3.361,3-9.51,5.776-18.4.276-.915.83-2.425,1.6-4.606.766-2.138,1.319-3.606,1.616-4.351.308-.766.744-2.01,1.394-3.67a9.065,9.065,0,0,1,1.84-3.436c.586-.638,1.287-1.436,2.074-2.329a6.38,6.38,0,0,1,2.745-2A8.511,8.511,0,0,1,984.277,102.957Z" transform="translate(-512.929 138.291)" fill="#7fa581"/>
            <path id="パス_3" data-name="パス 3" d="M1206.691,81.686a5.625,5.625,0,0,1,5.063,3.244q3.207,20.726-4.85,45.548a244.6,244.6,0,0,1-22.487,49.2q-14.519,24.364-29.433,48.26a416.484,416.484,0,0,0-26.922,50.579q-11.937,26.694-14.254,48.3a119.156,119.156,0,0,0,3.244,38.144c3.052,11.956,6.553,19.157,10.563,21.625a11.434,11.434,0,0,0,5.957,1.372,44.592,44.592,0,0,0,9.658-1.372,75.611,75.611,0,0,0,14.488-5.308,154.853,154.853,0,0,0,18.412-10.084,271.193,271.193,0,0,0,23.2-16.785q13.337-10.578,28.071-24.4c7.031-5.478,11.647-7.329,13.775-5.51q2.776,4.164-4.117,11.031-79.107,76.794-113.571,64.4a52.1,52.1,0,0,1-9.679-8.265,34.687,34.687,0,0,1-6.659-12.2c-1.681-5.063-2.925-9.052-3.659-11.967-.787-2.925-1.808-7.956-3.01-15.168-1.244-7.18-1.989-11.722-2.287-13.583-1.564-.9-7.828,4.468-18.88,16.1a193.635,193.635,0,0,1-14.924,14.275c-5.69,4.882-12.5,10.339-20.476,16.306a129.308,129.308,0,0,1-23.455,14.264,110.71,110.71,0,0,1-23.21,7.829c-7.819,1.67-14.647.84-20.455-2.542a20.039,20.039,0,0,1-4.84-18.157,70.328,70.328,0,0,1,8.755-21.625q6.669-11.249,19.061-21.827a211.436,211.436,0,0,1,26.22-19.083,138.742,138.742,0,0,1,30.1-13.807,91.919,91.919,0,0,1,31.048-4.819c8.3-.936,13.34-2.457,15.191-4.606q2.727-3.239,7.328-22.54a682.67,682.67,0,0,1,21.625-68.035,590.213,590.213,0,0,1,34.5-75.64q20.647-38.389,39.984-53.153ZM1084.4,320.519a29.986,29.986,0,0,0-4.148.457q-35.422,4.18-61.854,25.763-26.423,21.62-28.731,44.133,4.116,8.265,27.134-3.893,22.977-12.222,44.825-32.911Q1083.434,333.406,1084.4,320.519Z" transform="translate(-388.682 -66.698)" fill="#7fa581"/>
          </g>
        </g>
        <g id="グループ_9" data-name="グループ 9" transform="translate(944.619 515.696)">
          <path id="パス_25" data-name="パス 25" d="M978.083,126.232a51.9,51.9,0,0,0,14.045,2.067,5.987,5.987,0,0,0-1.7,2.364,46.419,46.419,0,0,1-14.395-3.36,52.886,52.886,0,0,1-15.052,3.9l-.446-.965a45.311,45.311,0,0,0,13.346-3.933,29.823,29.823,0,0,1-6.254-4.293,28.5,28.5,0,0,1-10.239,7.993l-.615-.848A28.817,28.817,0,0,0,968,117.317H957.455l-.488-.954h11.48c.372-.827.805-1.887,1.283-3.275,2.162.445,3.243.89,3.243,1.314,0,.254-.445.477-1.346.7a11.411,11.411,0,0,1-.626,1.261h16.568l2-2.449.4.35a27.264,27.264,0,0,1,2.459,2.29l-.53.763H970.546a34.056,34.056,0,0,1-1.791,3.127h13.218l1.506-1.526c1.78,1.378,2.671,2.237,2.671,2.6,0,.148-.19.318-.53.4l-1.123.36A35.317,35.317,0,0,1,978.083,126.232ZM963.964,106.8h10.219l1.377-1.495a16.4,16.4,0,0,1,1.983,1.844l-.424.625H966.572a30.809,30.809,0,0,1-3.137,3.784c3.837-.159,6.985-.413,9.56-.742a10.769,10.769,0,0,0-2.512-2.173l.423-.572a11.16,11.16,0,0,1,4.537,2.4,2.837,2.837,0,0,1,1.144,2.035c0,.816-.371,1.23-1.186,1.23-.436,0-.849-.329-1.124-.954a3.853,3.853,0,0,0-.626-1.092c-3.148.689-7.589,1.346-13.3,2-.255.742-.552,1.113-.785,1.113-.5,0-.922-1.028-1.241-3.085.2,0,1.124-.032,2.736-.074l1.06-.042a18.562,18.562,0,0,0,1.6-3.827h-5.9l-.361-.975h4.4V96.743c1.028.435,1.9.784,2.512,1.1H972.5l1.495-1.7a20.671,20.671,0,0,1,2.109,2.035l-.434.678h-11.7v1.791h7.792l1.166-1.081a2.807,2.807,0,0,0,.466.339,14.458,14.458,0,0,1,1.188,1.081l-.392.6H963.964v1.993h7.792l1.166-1.208a17.522,17.522,0,0,1,1.717,1.569l-.413.625H963.964Zm11.83,18.6a35.986,35.986,0,0,0,6.18-3.964H968.607A31.937,31.937,0,0,0,975.794,125.405Zm.7-22.748a28.222,28.222,0,0,0,9.879-6.3c1.77,1.028,2.639,1.749,2.639,2.226,0,.244-.285.35-.784.35-.138,0-.424-.032-.9-.074a39.086,39.086,0,0,1-10.41,4.675Zm.094,10.833a31.658,31.658,0,0,0,12.89-7.219c1.686,1.007,2.545,1.738,2.545,2.226,0,.244-.265.4-.689.4a4.475,4.475,0,0,1-.986-.159,35.456,35.456,0,0,1-13.292,5.629Zm1.632-6a25.577,25.577,0,0,0,9.583-6.074c1.59.986,2.417,1.728,2.417,2.226,0,.244-.2.371-.594.371a4.084,4.084,0,0,1-1.07-.18,32.391,32.391,0,0,1-9.9,4.494Z" transform="translate(-956.777 -96.075)" fill="#1a1a1a" stroke="rgba(0,0,0,0)" stroke-width="1"/>
          <path id="パス_26" data-name="パス 26" d="M966.1,102.166h8.566l1.685-1.94.191.17c.339.371.965,1.007,1.834,2l-.414.742h-4.568v5.915H971.2v-5.915h-5.131a11.384,11.384,0,0,1-4.929,8.745l-.647-.7c2.269-2.449,3.393-5.724,3.393-9.794V97.248c1.038.4,1.844.763,2.417,1.039a38.315,38.315,0,0,0,8.6-2.131c1.389.922,2.036,1.569,2.036,2,0,.212-.223.329-.743.329a4.15,4.15,0,0,1-1.134-.17,80.358,80.358,0,0,1-8.958.965Zm-5.608,28.218a32,32,0,0,0,11.873-5.459c2,.986,2.989,1.7,2.989,2.12,0,.265-.318.371-.954.371-.106,0-.435-.021-1.007-.043a46.828,46.828,0,0,1-12.36,3.986Zm8.184-20.013H987.27l1.453-1.463c1.483.975,2.268,1.654,2.268,2.014,0,.127-.127.307-.36.5l-.784.6v12.731h-2.279v-.965h-19.3v1.548h-2.248v-16.08a19.989,19.989,0,0,1,2.248.912Zm18.89,3.943v-2.958h-19.3v2.958Zm0,.954h-19.3v3.159h19.3Zm0,7.537v-3.392h-19.3V122.8Zm-6-20.638h9.593l1.749-2.014a18.686,18.686,0,0,1,2.236,2.247l-.413.742H988.88v5.533h-2.258v-5.533h-5.108a8.939,8.939,0,0,1-4.77,6.763l-.583-.71c2.152-1.855,3.234-4.505,3.234-7.971V97.29a20.247,20.247,0,0,1,2.226.89,40.394,40.394,0,0,0,9.412-2.025c1.495.986,2.2,1.654,2.2,2.056,0,.223-.212.35-.688.35a6.138,6.138,0,0,1-1.283-.191,62.616,62.616,0,0,1-9.646.774v2.046A7.494,7.494,0,0,1,981.567,102.166Zm-.509,22.811c9.211,1.367,13.8,2.979,13.8,4.844,0,.8-.371,1.208-1.1,1.208a2.007,2.007,0,0,1-1.039-.307,41.9,41.9,0,0,0-12.128-4.865Z" transform="translate(-921.103 -96.008)" fill="#1a1a1a" stroke="rgba(0,0,0,0)" stroke-width="1"/>
          <path id="パス_27" data-name="パス 27" d="M968,110.692v12.667c0,.668.2,1.049.583,1.208a13.678,13.678,0,0,0,2.85.17c2.11,0,3.3-.085,3.648-.35.689-.413,1.155-2.47,1.388-6.19l1.018.318a20.891,20.891,0,0,0,.361,5.162,1.292,1.292,0,0,0,1.357.869,2.1,2.1,0,0,1-1.834,2.088,58.114,58.114,0,0,1-5.809.223c-2.661,0-4.272-.2-4.834-.541-.679-.318-.975-1.208-.975-2.608V108.551a27.073,27.073,0,0,1,2.48,1.166h6.732v-9.159H964.526l-.339-1h10.441l1.463-1.94c1.557,1.23,2.352,2.088,2.352,2.438a.6.6,0,0,1-.328.5l-.933.6v11.8h-2.216v-2.269Zm22.048,10.25a29.058,29.058,0,0,0,9.635,7.325,8.015,8.015,0,0,0-1.951,2.237,31.02,31.02,0,0,1-8.925-7.727,25.551,25.551,0,0,1-12.339,8.406l-.54-.869a25.453,25.453,0,0,0,11.66-9.434,36.224,36.224,0,0,1-4.41-12.36,35.449,35.449,0,0,1-4.664,7.749l-.849-.636q4.9-7.759,6.381-19.472c2.513.488,3.785,1.028,3.785,1.558,0,.3-.541.572-1.622.816-.4,1.908-.859,3.837-1.463,5.766H995.2l1.845-2.491a32.213,32.213,0,0,1,2.459,2.777l-.382.731h-4.219C994.1,111.858,992.521,117.031,990.051,120.942Zm-1.357-1.876a38.556,38.556,0,0,0,3.753-13.748h-7.992c-.127.318-.308.753-.5,1.293C985.239,112.038,986.829,116.2,988.694,119.066Z" transform="translate(-885.64 -95.979)" fill="#1a1a1a" stroke="rgba(0,0,0,0)" stroke-width="1"/>
          <path id="パス_28" data-name="パス 28" d="M989.947,117.289a27.772,27.772,0,0,0,2.278-5.47c2.2.753,3.339,1.357,3.339,1.866,0,.3-.529.5-1.621.583a22.663,22.663,0,0,1-2.64,3.021h6.805l1.983-2.47a17.991,17.991,0,0,1,2.543,2.735l-.4.7H968.407l-.488-.965h15.8v-5.756H968.746l-.466-.965h15.444v-3.318h-11.6l-.435-.986h12.031v-3.074h-13.95l-.413-1h18.02a29.206,29.206,0,0,0,2.4-6.053c2.31.763,3.529,1.452,3.529,1.982,0,.382-.541.6-1.7.678a27.972,27.972,0,0,1-2.734,3.159.509.509,0,0,1-.212.233h8.151l1.855-2.321a27.715,27.715,0,0,1,2.639,2.6l-.465.721H986.056v3.074h8.427l1.876-2.078a17.755,17.755,0,0,1,2.459,2.417l-.445.647H986.056v3.318h11.6l1.94-2.279a17.94,17.94,0,0,1,2.639,2.512l-.445.731H986.056v5.756Zm-14.025,4.219h17.85l1.559-1.717c1.653,1.145,2.48,1.887,2.48,2.29,0,.138-.127.318-.371.509l-1.018.678v8.141h-2.247v-2.067H975.435v2.067h-2.311V120.1A20.139,20.139,0,0,1,975.922,121.508Zm-1.356-9.614c3.073.965,4.6,2.226,4.6,3.784a1.221,1.221,0,0,1-1.346,1.4c-.573,0-.965-.4-1.2-1.177a5.954,5.954,0,0,0-2.5-3.307Zm.869,10.589v5.862h18.741v-5.862Zm1.579-26.246c3.212,1.092,4.8,2.459,4.8,4.092a1.583,1.583,0,0,1-.794,1.4,1.041,1.041,0,0,1-.669.2c-.656,0-1.081-.445-1.218-1.325a7.072,7.072,0,0,0-2.607-3.71Z" transform="translate(-849.812 -96.142)" fill="#1a1a1a" stroke="rgba(0,0,0,0)" stroke-width="1"/>
          <path id="パス_29" data-name="パス 29" d="M992.673,106.385v-5.6a6.452,6.452,0,0,0-.223-2.2c-.213-.445-.965-.869-2.162-1.24l.286-1.049a8.782,8.782,0,0,1,3.657.7c.86.392,1.261.859,1.261,1.378a2.888,2.888,0,0,1-.094.753c-.138.36-.149.572-.191.657-.159,1.3-.3,3.487-.35,6.487a17.564,17.564,0,0,0,4.856-.806,2.972,2.972,0,0,1,1.293-.318,5.362,5.362,0,0,1,2.045.647,1.277,1.277,0,0,1,.891,1.166c0,.774-.54,1.155-1.58,1.155-.106,0-.8-.032-2.024-.074-1.888-.1-3.7-.106-5.481-.1,0,4.537-.435,7.929-1.325,10.208q-2.718,7.107-11.862,9.975l-.477-1.049a22.96,22.96,0,0,0,7.208-4.569,13.685,13.685,0,0,0,3.085-5.12,30.3,30.3,0,0,0,1.144-9.349c-2.247.085-5.385.286-9.392.583v2.671c0,.848.043,1.823.075,2.915.032.36.032.763.032,1.124,0,1.505-.5,2.237-1.484,2.237a1.171,1.171,0,0,1-.891-.4,1.656,1.656,0,0,1-.244-.933c0-.254,0-.71.052-1.261.191-2.491.255-4.537.255-6.074a21.152,21.152,0,0,0-3.837.636,7.391,7.391,0,0,1-1.813.329,3.089,3.089,0,0,1-2.013-1.018,7.515,7.515,0,0,1-1.686-2.088l.731-.742a5.29,5.29,0,0,0,3.4,1.4c.689,0,2.449-.117,5.289-.276,0-1.749-.01-3.222-.074-4.463a12.505,12.505,0,0,0-.2-2.226c-.169-.594-.859-1.071-2.055-1.495l.254-1.028c2.957.085,4.42.784,4.42,2.056a3.642,3.642,0,0,1-.064.562,2.277,2.277,0,0,0-.042.382,13.744,13.744,0,0,0-.138,2.29V107C987.669,106.693,990.849,106.491,992.673,106.385Z" transform="translate(-813.668 -94.683)" fill="#1a1a1a" stroke="rgba(0,0,0,0)" stroke-width="1"/>
          <path id="パス_30" data-name="パス 30" d="M998.654,114.988a3.941,3.941,0,0,1,1.347.9,1.43,1.43,0,0,1,.3.7.7.7,0,0,1-.583.71,4.632,4.632,0,0,1-1.335.127c-5.024-.042-10.643.117-16.865.519a7.977,7.977,0,0,1-.286,2.48,1.086,1.086,0,0,1-1.008.6c-.773,0-1.176-.678-1.208-2.078-.064-2.131-.255-5.639-.456-10.568-.233-4.092-.435-6.742-.636-7.9a5.332,5.332,0,0,0-2.28-2.777l.615-.954a13.8,13.8,0,0,1,4.441,2.767q1.829-.127,8-.477c2.682-.148,4.781-.265,6.35-.318a4.632,4.632,0,0,0,2.565-.678,2.394,2.394,0,0,1,1.166-.583,3.267,3.267,0,0,1,1.644.986c.8.678,1.2,1.293,1.2,1.738,0,.3-.243.625-.71,1.007a2.6,2.6,0,0,0-.71,1.505C999.64,107.028,999.11,111.109,998.654,114.988Zm-2.279.382q.923-9.492,1.252-15.148c-6.922.392-12.6.731-17.067,1.06.244,4.9.488,9.826.764,14.808C988.33,115.688,993.355,115.412,996.375,115.37Z" transform="translate(-775.68 -90.248)" fill="#1a1a1a" stroke="rgba(0,0,0,0)" stroke-width="1"/>
          <path id="パス_31" data-name="パス 31" d="M979.986,96.64a16.618,16.618,0,0,1,6.72,3.381,4.53,4.53,0,0,1,1.718,3.042c0,1.346-.488,2.025-1.5,2.025-.4,0-.954-.53-1.548-1.558a17.143,17.143,0,0,0-5.894-5.957Zm.572,21.168c.689,1.039,1.4,1.579,2.152,1.579a9.294,9.294,0,0,0,3.763-1.3,52.466,52.466,0,0,0,19.738-17.384l.9.784a48,48,0,0,1-8.458,10.992,57.965,57.965,0,0,1-11.279,8.014,19.981,19.981,0,0,0-2.735,1.6,2.579,2.579,0,0,1-1.792.636c-.424,0-.965-.445-1.654-1.3a9.939,9.939,0,0,1-1.516-2.989Z" transform="translate(-738.854 -91.361)" fill="#1a1a1a" stroke="rgba(0,0,0,0)" stroke-width="1"/>
        </g>
      </g>
      <g id="mv1">
        <g id="グループ_10" data-name="グループ 10" transform="translate(409.283 232.325)">
          <path id="パス_32" data-name="パス 32" d="M881.034,65.344A95.81,95.81,0,0,0,876.065,82.8h-4.43a118.045,118.045,0,0,1,7.843-17.9Zm-10.377,0a104.166,104.166,0,0,0-5,17.459h-4.45A110.934,110.934,0,0,1,869.1,64.9Z" transform="translate(-861.209 -64.679)" fill="#1a1a1a"/>
          <path id="パス_33" data-name="パス 33" d="M907.035,75.8c.958.822,1.32,1.555,1.184,2.152s-.871,1.262-1.937,1.927c-1.183.606-2,2.749-2.886,4.685A59.977,59.977,0,0,1,897.137,94.6a57.211,57.211,0,0,1-8.01,9.2,45.675,45.675,0,0,1-10.838,7.58,71.912,71.912,0,0,1-11.355,5.047c-.91.3-1.556.068-1.741-.44-.059-.45.538-.734,1.135-.968a39.807,39.807,0,0,0,8.979-4.45,74.93,74.93,0,0,0,9.057-7.13,47.063,47.063,0,0,0,8.167-9.37,54.8,54.8,0,0,0,5.066-8.842,32.685,32.685,0,0,0,1.946-6.015,2.192,2.192,0,0,0-.234-1.858,6.027,6.027,0,0,0-1.644-.147h-6.386c-1.037.078-2.6.078-3.629.078a44.637,44.637,0,0,1-2.406,4.225,35.516,35.516,0,0,1-7.629,8.773,30.171,30.171,0,0,1-9.145,5.5c-.6.215-1.322.215-1.536-.215-.235-.528.42-.968.938-1.262a34.323,34.323,0,0,0,7.737-5.644,45.686,45.686,0,0,0,6.152-7.952,38.207,38.207,0,0,0,3.228-6.759,8.867,8.867,0,0,0,.646-3.942,4.254,4.254,0,0,0-1.468-2.152c-.695-.587-1.114-1.643-.636-2.162.636-.665,1.888-.284,3.208.147a10.264,10.264,0,0,1,3.571,2.083c.821.89.6,2.23,0,3.942a28.192,28.192,0,0,1-1.184,2.67c.518.078,1.261.225,1.907.293a30.088,30.088,0,0,0,5.145,0,8.528,8.528,0,0,0,4.02-1.408,3.619,3.619,0,0,1,3.579.068A11.229,11.229,0,0,1,907.035,75.8Z" transform="translate(-826.255 -60.875)" fill="#1a1a1a"/>
          <path id="パス_34" data-name="パス 34" d="M872.6,83.577c1.037-1.115,2.659-.225,3.5.235A8.259,8.259,0,0,0,879.062,85c2,.45,4.215.293,7.551-.44,1.633-.372,3.512-.822,5.517-1.418,0-.518.079-1.047.079-1.565a80.38,80.38,0,0,0-.079-8.539,7.49,7.49,0,0,0-2.084-3.932c-.969-1.047-1.555-2.152-1.2-2.827.684-1.115,2.328-.665,3.8-.137a7.943,7.943,0,0,1,4.069,2.964,4.578,4.578,0,0,1,0,5.2c-.871,1.565-1.1,4.147-1.1,7.209v.577c1.164-.372,2.445-.8,3.7-1.174,5-1.633,9.273-3.052,11.963-3.873,2.7-.89,4.47-1.555,5.957-1.33,1.467.3,2.915,1.858,3.8,3.423s.968,2.9,0,3.639A16.921,16.921,0,0,1,917,84.32a15.2,15.2,0,0,0-4.969,3.423c-1.555,1.487-2.533,2.465-5.066,5.057-2.435,2.524-3.482,3.492-4.3,4.3-.518.518-1.339.89-1.6.675a1.024,1.024,0,0,1,.049-1.418,39.965,39.965,0,0,1,2.9-3.854c1.761-2.152,4.578-5.732,8.021-9.448,1.272-1.34.156-2.367-.91-2.367-1.095,0-2.875.293-7.325,1.7-3.2,1.047-5.8,1.712-8.265,2.523,0,2.68-.058,5.722-.127,7.668a78.052,78.052,0,0,0,.068,11.493c.371,2.748,2.817,4.323,6.671,4.47a29.211,29.211,0,0,0,7.952-.518c2.523-.518,5.272-1.858,7.278-1.858,2.093-.068,3.726.518,4.3,2.152.6,1.633-.949,2.748-2.876,2.973a83.892,83.892,0,0,1-12.04.6c-4.518,0-8.021-.293-10.769-1.418-2.67-1.174-4.235-4.167-4.3-7.58-.078-3.335,0-6.6.127-10.309.079-2.171.147-4.313.147-6.543a89.3,89.3,0,0,1-9.37,3.11,9.781,9.781,0,0,1-7.776-1.037C872.655,86.629,871.834,84.4,872.6,83.577Z" transform="translate(-763.657 -58.704)" fill="#1a1a1a"/>
          <path id="パス_35" data-name="パス 35" d="M906.873,87.278v11.59l22.281-2.524,3.13-4.969a41.068,41.068,0,0,1,5.1,4.607l-.479,1.33L906.873,100.8v13.37c0,1.193.372,1.927,1.047,2.24.645.293,3.775.44,9.341.44,6.622,0,10.406-.3,11.58-.675,1.506-.44,2.719-4.235,3.444-11.356l1.7.665a41.139,41.139,0,0,0,.587,8.46c.371,1.418,1.125,2.152,2.367,2.152-.039,1.858-.733,3.061-2.073,3.5-1.849.665-6.818.968-14.769.968-8.706,0-13.752-.3-15-.822-1.556-.665-2.24-2.3-2.24-4.978V101.245l-22.222,2.6-1.017-1.858L902.854,99.4V87.737l-18.926,2.152-.978-1.721,19.9-2.142V74.954c-6.455,1.408-12.617,2.6-18.565,3.58l-.811-1.721q23.591-4.46,37.657-11.649c3.256,1.78,4.969,3.12,4.969,4,0,.44-.519.675-1.555.675a7.521,7.521,0,0,1-2.083-.313c-5.047,1.633-10.25,3.208-15.591,4.538V85.507l17.009-1.937,2.905-4.832a54.361,54.361,0,0,1,5.047,4.46l-.695,1.35Z" transform="translate(-699.587 -62.405)" fill="#1a1a1a"/>
          <path id="パス_36" data-name="パス 36" d="M939.525,80.559c1.712,2.748,2.063,5.487.509,9.135a9.006,9.006,0,0,1-7.2,5.869,17.662,17.662,0,0,1-10.035-.968,19.922,19.922,0,0,1-8.617-6.309c-.441-.606-.441-1.35-.147-1.5a1.432,1.432,0,0,1,1.642.45,17.7,17.7,0,0,0,8.383,4.969c4.02,1.115,7.953.528,10.4-1.555a6.768,6.768,0,0,0,.46-9.575c-2.847-2.973-7.727-3.873-12.344-2.9a38.48,38.48,0,0,0-11.668,5.057c-1.164.655-2.826,1.624-4.451,2.523,1.106,2.9,2.534,6.455,3.336,8.324,1.027,2.367,3.561,7.864,4.607,10.847a22.272,22.272,0,0,1,1.574,8.617c-.215,2.817-1.262,4.822-2.817,4.675-1.633-.225-2.337-1.937-2.181-4.157a22.825,22.825,0,0,0-.568-6.984c-.958-3.873-2.455-7.365-3.8-11.59-.89-3.052-1.858-5.79-2.827-8.245-2.229,1.272-4.313,2.387-5.575,2.964-2.582,1.428-4.156,2.093-5.878,2.005a5.789,5.789,0,0,1-3.707-1.477c-.812-.753-1.467-1.79-1.105-2.523.675-1.125,2-1.056,3.7-.89a12.212,12.212,0,0,0,5.663-1.2c1.105-.509,3.11-1.477,5.34-2.514-1.115-2.523-2.23-4.841-2.885-6.534a10.708,10.708,0,0,1-.225-6.387,5.48,5.48,0,0,1,3.942-3.5,13,13,0,0,1,6,.3,18.532,18.532,0,0,1,4.108,1.633c.724.362,1.457.822,1.936.362a5.221,5.221,0,0,0,.157-2.152c-.087-.812-.087-1.858.724-1.927.519-.137,1.252.518,1.927,1.183.811.9,1.467,1.487,2.161,2.377a4.8,4.8,0,0,1,1.106,3.052c-.1,1.105,0,2.23-.89,2.748a4.094,4.094,0,0,1-3.659-.3,21.962,21.962,0,0,1-3.325-2.67,12.4,12.4,0,0,0-5.057-2.827c-2.445-.518-3.942,0-5.126,1.262-.958,1.037-1.037,3.795-.44,5.947a46.956,46.956,0,0,0,2.4,6.172c1.008-.44,2.064-.968,2.885-1.34,3.424-1.5,8.246-3.717,12.041-4.9a20.177,20.177,0,0,1,11.141-.978A12.428,12.428,0,0,1,939.525,80.559Z" transform="translate(-631.056 -60.498)" fill="#1a1a1a"/>
          <path id="パス_37" data-name="パス 37" d="M917.478,105.319a42.183,42.183,0,0,0,6.152-8.47,10.2,10.2,0,0,0-.949-1.2,18.378,18.378,0,0,0-5.2-4.069c-.695-.45-.763-.968-.587-1.2.42-.587,1.477-.284,2.161,0a29.067,29.067,0,0,1,6.2,3.58,68.313,68.313,0,0,0,3.8-7.287,30.552,30.552,0,0,0,2.113-6.387c.06-1.037-.489-1.037-1.134-1.037-1.41,0-2.622,0-4.979.137a43.337,43.337,0,0,0-6.631.9c-.353.078-.871.147-1.32.225a42.071,42.071,0,0,1-5.038,7.267,45.492,45.492,0,0,1-6.348,6.778,27.6,27.6,0,0,1-5.379,3.639c-1.213.508-2.015.822-2.338.293-.372-.528.176-1.115.832-1.487a18.124,18.124,0,0,0,3.207-2.308,48.878,48.878,0,0,0,6.906-7.717,79.512,79.512,0,0,0,4.606-7.727,27.907,27.907,0,0,0,2.063-5.732,2.486,2.486,0,0,0-.88-2.817,1.184,1.184,0,0,1-.45-1.633c.382-.6,1.4-.6,2.759-.078a4.112,4.112,0,0,1,2.876,3.277c.166,1.252-.441,3.423-1.32,5.487,2.279,0,5.408-.293,7.56-.509a15.775,15.775,0,0,0,4.617-.968,15.227,15.227,0,0,0,1.418-1.33,2.638,2.638,0,0,1,2.572-.675c1.144.293,2.621,1.927,3.2,2.973.529,1.037.46,1.78-.88,2.827a6.8,6.8,0,0,0-2.524,2.954c-.587,1.35-1.261,3.267-2.367,5.878a47.251,47.251,0,0,1-3.874,7.433c1.106.959,2.23,2.005,3.15,2.964,1.6,1.79,2.876,4.978.557,6.387-2.357,1.408-4.509-1.633-5.418-3.775a16.006,16.006,0,0,0-.792-1.712,67.643,67.643,0,0,1-5.007,5.947,46.533,46.533,0,0,1-7.786,6.68,53.6,53.6,0,0,1-11.659,6.387,25.19,25.19,0,0,1-4.244,1.487c-.8.225-1.546.147-1.7-.156-.225-.6,0-.949,1.282-1.33a48.663,48.663,0,0,0,11.864-6.093A59.588,59.588,0,0,0,917.478,105.319ZM939.24,72.769a25.584,25.584,0,0,0-4.3-3.472c-.6-.381-.9-.89-.6-1.418.215-.362.88-.3,1.173-.3a12.606,12.606,0,0,1,4.108.89c1.537.6,3.7,1.79,4.431,3.052a1.779,1.779,0,0,1-1.115,2.68A4.287,4.287,0,0,1,939.24,72.769Zm5.869-3.042a11.078,11.078,0,0,0-4.529-3.11c-.665-.313-.959-.968-.665-1.418.215-.3.88-.3,1.183-.3a13.123,13.123,0,0,1,4.148.685c1.574.44,3.814,1.545,4.519,2.827a1.681,1.681,0,0,1-.939,2.67A3.977,3.977,0,0,1,945.109,69.727Z" transform="translate(-561.542 -64.758)" fill="#1a1a1a"/>
          <path id="パス_38" data-name="パス 38" d="M919.3,96.474c1.652-2.23,2.973-4.392,4.3-6.6a3.4,3.4,0,0,0-.6-.665,41.72,41.72,0,0,0-6.386-5.438c-.822-.518-1.986-1.34-1.643-1.937.46-.655,1.193-.352,3.149.46a52.133,52.133,0,0,1,7.4,4.157,24.5,24.5,0,0,0,1.427-2.68c2.6-4.822,3.727-7.942,4.167-10.025.421-2.152.138-3.863-.655-4.91-.763-.949-1.673-2.074-1.125-2.817.665-.968,1.917-.6,3.561.078a8.194,8.194,0,0,1,4.3,3.423c.969,1.555.576,2.817.068,3.325a3.7,3.7,0,0,0-1.418,1.937,28.044,28.044,0,0,1-1.712,4.529,72.8,72.8,0,0,1-5.253,9.438,42.86,42.86,0,0,1,5.185,4.392c2.406,2.592,3.13,5.859.9,7.052-2.142,1.183-4.479-.528-6.241-3.345-.89-1.33-1.78-2.67-2.582-3.854A88.362,88.362,0,0,1,917.9,103.6a59.525,59.525,0,0,1-11.375,9.967c-1.859,1.262-2.9,1.477-3.14,1.027-.274-.44.489-1.115,1.36-1.927a72.27,72.27,0,0,0,6.592-6.162A98.749,98.749,0,0,0,919.3,96.474Z" transform="translate(-491.32 -60.079)" fill="#1a1a1a"/>
          <path id="パス_39" data-name="パス 39" d="M961.239,72.042c-.137.88-1.2,1.184-2.757.88-1.5-.215-5.713-.743-8.354-.949a108.805,108.805,0,0,0-11.3-.372c-2.7.205-8.117.372-11.59.733-2.768.293-5.956,1.047-8.547,1.115a11.834,11.834,0,0,1-6.7-1.927c-1.477-1.125-2.083-2.827-1.272-3.433,1.272-.968,3.433-.069,5.283.45a30.907,30.907,0,0,0,8.108.822c3.023-.137,9.341-.45,12.539-.518,3.13-.147,11.835-.45,14.789-.518,3.051,0,6.1.069,7.648.734C960.672,69.734,961.4,71,961.239,72.042Z" transform="translate(-429.628 -40.469)" fill="#1a1a1a"/>
          <path id="パス_40" data-name="パス 40" d="M917.889,87.822c.088-1.115,2.681-.8,4.666-.655a17.1,17.1,0,0,1,6.26,1.262,10.937,10.937,0,0,1,3.863,2.592c1.173,1.193,1.681,3.355.225,4.46-1.35.968-3.11.225-4.255-1.105a18.653,18.653,0,0,0-3.932-3.414,12.807,12.807,0,0,0-4.969-2.162C918.33,88.5,917.831,88.35,917.889,87.822Zm20.648-8.02c1.271,1.34,1.624,3.052.616,4.157-.968,1.135-2.4,1.135-3.952.156a17.86,17.86,0,0,1-4.01-3.492,11.249,11.249,0,0,0-6.749-4.01c-1.135-.225-1.643-.518-1.643-.9,0-.665,1.115-.88,1.986-.88a17.052,17.052,0,0,1,3.364.293,20.621,20.621,0,0,1,5.409,1.487A11.552,11.552,0,0,1,938.537,79.8Zm29.949.753a82.806,82.806,0,0,1-7.531,9.732c-2.954,3.267-4.519,4.822-9.127,9.2a81.974,81.974,0,0,1-14.27,10.779c-3.266,1.858-5.478,3.042-8.021,3.042-2.435,0-3.785-1.721-4.587-3.267-.753-1.408-.959-3.267-.069-3.795.656-.372,1.4-.137,2.368.6a5.971,5.971,0,0,0,3.5,1.193c1.927.147,4.753-1.408,9.654-4.3a93.486,93.486,0,0,0,9.409-6.534,73.3,73.3,0,0,0,9.761-8.92,103.549,103.549,0,0,0,6.965-8.852c1.027-1.555,2.533-3.492,3.189-3.11C970.481,76.691,970.119,78.022,968.486,80.555Zm-10.926-7.58a29.877,29.877,0,0,0-4.382-3.414c-.606-.381-.968-1.047-.606-1.487a1.391,1.391,0,0,1,1.212-.225,12.39,12.39,0,0,1,4.089.822c1.526.6,3.707,1.78,4.45,3.032a1.782,1.782,0,0,1-1.066,2.68A4.382,4.382,0,0,1,957.56,72.975Zm5.8-3.042a11.492,11.492,0,0,0-4.519-3.052,1.156,1.156,0,0,1-.695-1.5c.215-.284.822-.284,1.252-.284a12.883,12.883,0,0,1,4.088.743c1.486.44,3.815,1.477,4.549,2.739a1.672,1.672,0,0,1-.979,2.69A3.774,3.774,0,0,1,963.361,69.933Z" transform="translate(-363.539 -62.949)" fill="#1a1a1a"/>
          <path id="パス_41" data-name="パス 41" d="M927.017,76.926c-.949-.959-1.79-2.748-1.066-3.56.627-.743,1.878-.215,2.856.147a9.269,9.269,0,0,0,4.362.743c2.23,0,6.485-1.34,8.852-2.083,2.289-.665,7.4-2.3,12.022-3.492,4.469-1.184,9.575-2.435,11.981-2.827,2.289-.372,5.341-.137,6.592.675,1.184.753,1.947,2.074,1.487,2.973-.518.89-1.408.89-2.6.675a41.8,41.8,0,0,0-4.45-.606,75.75,75.75,0,0,0-8.255.89c-.147,0-.284.078-.509.078-.958.822-2.514,1.927-3.766,3.052a14.815,14.815,0,0,0-4.2,5.575c-.831,1.927-1.115,4.675-1.565,7.57a43.023,43.023,0,0,0-.2,11.737,7.6,7.6,0,0,0,2.875,5.565,8.625,8.625,0,0,0,6.055,1.5,17.942,17.942,0,0,1,5.243.147,5.84,5.84,0,0,1,3.08,2.152c.548.89-.107,2.015-1.642,2.152a46.363,46.363,0,0,1-7.239,0,13.638,13.638,0,0,1-7.99-2.9c-1.957-1.555-2.817-3.638-3.374-6.827a40.221,40.221,0,0,1-.127-10.71,90.246,90.246,0,0,1,1.7-8.979,12.708,12.708,0,0,1,3.267-6.025,29.492,29.492,0,0,1,3.57-3.042,26.359,26.359,0,0,0-3.864,1.193c-2.758,1.037-7.149,2.9-9.438,3.795-2.455.88-5.125,2.142-7.736,2.357A7.1,7.1,0,0,1,927.017,76.926Zm39.123,5.135a25.338,25.338,0,0,0-4.283-3.492c-.606-.45-.988-.978-.606-1.5.224-.293.89-.293,1.261-.225a14.143,14.143,0,0,1,4.02.9c1.574.528,3.8,1.712,4.45,3.042a1.788,1.788,0,0,1-1.037,2.67C968.9,83.763,967.276,83.1,966.14,82.061Zm5.947-3.12a11.2,11.2,0,0,0-4.606-3.052c-.655-.293-.949-.968-.655-1.408.225-.45.821-.3,1.281-.3a10.875,10.875,0,0,1,4.049.675c1.5.44,3.718,1.487,4.538,2.739a1.756,1.756,0,0,1-.948,2.758C974.777,80.711,973.008,80.056,972.087,78.941Z" transform="translate(-295.104 -57.844)" fill="#1a1a1a"/>
          <path id="パス_42" data-name="パス 42" d="M938.332,78.05a51.289,51.289,0,0,1,.881,8.47,22.437,22.437,0,0,1-1.027,7.355c-.8,2.514-1.907,3.863-3.57,3.863a1.8,1.8,0,0,1-2.063-1.927,3.028,3.028,0,0,1,.431-1.428c2.24-3.707,3.492-9.2,3.638-16.5Zm3.874,46.87V64.9c4.45.069,6.612.6,6.612,1.555,0,.587-.92,1.262-2.828,2V124.92Zm6.152-49.247c3.853,3.267,5.732,6.543,5.732,9.732,0,1.917-.753,2.9-2.465,2.9-.978,0-1.468-.753-1.565-2.22a19.964,19.964,0,0,0-2.817-9.673Zm6.318-6.837a26.343,26.343,0,0,1,8.7,8.1,8.321,8.321,0,0,1,1.633,4.382c0,1.7-.831,2.592-2.464,2.592-1.038,0-1.781-.89-2.231-2.748-.89-3.492-3.051-7.277-6.69-11.219Zm4.391,49.706h27.27V87.625c4.362.225,6.455.812,6.455,1.79,0,.6-.822,1.183-2.612,1.849V124.92h-3.842v-4.685h-27.27v4.685h-3.874V87.85c4.382.293,6.524.9,6.524,1.79,0,.518-.89,1.115-2.65,1.78Zm3.775-24.824.968-1.252a86.2,86.2,0,0,1,9.223,6.221,59.727,59.727,0,0,0,3.873-11.5c3.7,1.408,5.566,2.6,5.566,3.57,0,.577-.9.959-2.757.959a46,46,0,0,1-3.933,9.292c4.519,3.942,6.827,6.974,6.827,9.282,0,1.408-.655,2.152-1.927,2.152-.744,0-1.8-.968-2.885-2.827a40.6,40.6,0,0,0-3.727-5.272,39.29,39.29,0,0,1-11.658,11.59l-1.184-1.408a44.041,44.041,0,0,0,10.31-13.155A61.334,61.334,0,0,0,962.844,93.718Zm4.187-27.924c5.633,4.519,8.382,8.754,8.382,12.549,0,2.005-.733,3.042-2.474,3.042-1.243,0-1.986-1.037-2.212-3.189-.224-3.335-1.956-7.2-4.988-11.365ZM978.523,85.18a98.627,98.627,0,0,0,8.02-18.721c4.088,1.868,6.074,3.189,6.074,4.235,0,.665-1.037.968-3.012.968a79.592,79.592,0,0,1-9.584,14.476Z" transform="translate(-234.746 -64.679)" fill="#1a1a1a"/>
          <path id="パス_43" data-name="パス 43" d="M987.966,84.144a9.33,9.33,0,0,1-.284,6.475,2.256,2.256,0,0,1-2.837,1.262c-.811-.372-2.151-1.262-3.1-1.643a23.578,23.578,0,0,0-6.837-.968c0,1.633.127,3.57.283,5.35a40.851,40.851,0,0,0,1.653,8.03c.666,1.78,2.064,4.587,2.748,6.377.578,1.78-.6,3.942-1.809,4.978-1.173,1.047-3.393,2.24-7.139,3.414a31.911,31.911,0,0,1-12.07.968c-3.521-.294-5.8-.968-7.3-2.074-1.565-1.262-2.162-3.052-2.3-5.575a45.164,45.164,0,0,1,.655-6.309,10.6,10.6,0,0,1-4.02-1.565,10.1,10.1,0,0,1-4.215-7.277c-.372-3.873,0-6.905,1.78-9.37,1.78-2.367,4.89-2.514,7.668-1.34a.9.9,0,0,1,.557.235c0-1.721.108-3.639.108-5.272a42.406,42.406,0,0,1-4.314-.147,7.783,7.783,0,0,1-4.852-1.643c-1.173-1.115-1.692-2.983-.948-3.423s1.466.382,2,.822a8.684,8.684,0,0,0,3.051,1.408,13.592,13.592,0,0,0,4.314-.068,3.7,3.7,0,0,0,.646-.225,26.218,26.218,0,0,0-.557-4.832,6.514,6.514,0,0,0-2.191-3.257,2.23,2.23,0,0,1-.724-2.9c.46-.528,1.7-.372,2.68-.059a7.369,7.369,0,0,1,4.753,5.106,16.333,16.333,0,0,0,4.822,1.868c1.193.137,1.947.518,2.221,1.262a2.5,2.5,0,0,1-.508,3.267c-1.262,1.184-3.942,2.22-6.768,2.524-.216.078-.5.078-.812.156v1.252c0,2.162.068,3.932,0,6.465a3.646,3.646,0,0,1,1.046,2.24,18.757,18.757,0,0,1-1.35,6.377c-.723,2.162-1.243,4.01-.969,4.91.373.958,0,2-.46,3.785-.43,1.643-1.183,5.868-.352,7.424.753,1.408,2.817,2.308,6.6,2.377,3.825.078,7.737-.068,9.821-.968a15.73,15.73,0,0,0,5.037-3.257c.969-1.037,1.135-4.01,1.135-5.2a59.672,59.672,0,0,0-1.036-6.084,57.755,57.755,0,0,1-.89-8.773c-.156-3.57.449-7.8,1.271-9.507.734-1.7,1.771-3.873,3.707-4.088a8.292,8.292,0,0,1,5.693,1.633A11.22,11.22,0,0,1,987.966,84.144ZM949.634,99.011c.518-.235.812-1.34,1.125-3.208.147-.88.3-2.435.441-4.088a5.238,5.238,0,0,0-1.566-1.839,6.018,6.018,0,0,0-4.156-.978c-1.175.225-1.781,2.612-1.5,4.969.322,2.318,2.562,3.648,3.354,4.176C948.255,98.552,949.116,99.295,949.634,99.011Zm5.145-23.484a18.237,18.237,0,0,0,3.326-1.937,9.582,9.582,0,0,1-2.681-1.4,3.556,3.556,0,0,1-.215,1.252C955.053,74.041,954.985,74.784,954.779,75.527Zm28.355,9.145a39.789,39.789,0,0,0-2.514-4.617,1.977,1.977,0,0,0-3.208-.3,10.437,10.437,0,0,0-2.445,5.5,19.787,19.787,0,0,0-.137,2.015c.519-.147,1.4-.293,2.3-.44a32.3,32.3,0,0,1,5.624-.528C983.515,86.3,983.574,85.484,983.133,84.673Z" transform="translate(-160.102 -61.864)" fill="#1a1a1a"/>
          <path id="パス_44" data-name="パス 44" d="M1003.364,120.74c0,1.487-.675,2.23-2.015,2.23-.656,0-1.936-.831-3.922-2.533a96,96,0,0,0-15.454-10.319c-6.377,7.805-17.224,12.48-32.443,14.114l-.881-1.633c13.957-2.308,23.885-7.12,29.792-14.348a143.8,143.8,0,0,0-16.3-6.974c-.89,1.633-1.937,3.638-3.179,6.025l-3.726-1.35A202.492,202.492,0,0,0,965.8,84.2l.587-1.428H948.767l-.88-1.624h19.161c2.3-6.084,4.225-11.5,5.565-16.266,4.187.743,6.25,1.545,6.25,2.435,0,.606-1.056,1.213-3.139,1.643a127.268,127.268,0,0,1-4.451,12.187h27.484l3.863-5.125a61.617,61.617,0,0,1,4.832,5.428l-.754,1.32H993.573a71.4,71.4,0,0,1-9.654,24.53C996.83,113.091,1003.364,117.541,1003.364,120.74ZM989.172,82.77H970.607q-3.243,8.172-7.57,16.872c5.281,1.565,10.984,3.57,17.235,6.094A70.072,70.072,0,0,0,989.172,82.77Z" transform="translate(-100.1 -64.881)" fill="#1a1a1a"/>
          <path id="パス_45" data-name="パス 45" d="M960.851,77.988a60.889,60.889,0,0,1,1.027,9.5q0,10.255-4.216,10.25c-1.584,0-2.318-.724-2.318-2.064a7.633,7.633,0,0,1,.958-2.387c1.78-3.267,2.758-8.392,2.827-15.522Zm4.314,46.87V64.911c4.371,0,6.592.6,6.592,1.565,0,.509-.89,1.184-2.738,1.917v56.465Zm6.074-49.032c3.922,4.235,5.859,7.8,5.859,10.857,0,1.848-.8,2.807-2.356,2.807-1.066,0-1.663-.88-1.8-2.66a25.123,25.123,0,0,0-3.023-9.957Zm26.144,8.108v16.187h8.04l3.169-4.372c1.8,1.927,3.2,3.482,4.274,4.744l-.841,1.272H997.382V120.4h11.375l3.4-4.675.831.734c1.555,1.565,2.749,2.993,3.786,4.245l-.822,1.33h-40.8l-.8-1.633h19.014V101.765h-12.7l-.655-1.643h13.351V83.935h-8.911a52.652,52.652,0,0,1-7.052,14.182l-1.622-.968c3.765-7.277,6.278-16.637,7.628-27.993,4.168,1.1,6.318,2.074,6.318,2.964,0,.587-.89.958-2.6,1.33-.792,3.932-1.555,6.837-2.142,8.842h8.382V65.283c4.6.078,6.827.665,6.827,1.7,0,.6-.87,1.281-2.817,1.858V82.292h9.575l3.267-4.47a44.775,44.775,0,0,1,3.952,4.167l.518.675-.753,1.272Z" transform="translate(-34.612 -64.618)" fill="#1a1a1a"/>
          <path id="パス_46" data-name="パス 46" d="M1014.869,85.666a28.434,28.434,0,0,1-.989,10.25,16.283,16.283,0,0,1-7.218,9.36,34.112,34.112,0,0,1-12.226,4.45,31.755,31.755,0,0,1-11.972.068c-.724-.068-1.105-.362-1.026-.734,0-.372.44-.665,1.026-.6a32.81,32.81,0,0,0,3.942.225,37.3,37.3,0,0,0,8.909-1.262,31.927,31.927,0,0,0,9.057-4.382,16.8,16.8,0,0,0,6.388-10.554,26.024,26.024,0,0,0-.969-12.256,15.412,15.412,0,0,0-6.524-9.2c-3.277-2.152-8.236-3.208-12.921-2.749-.576.068-1.281.225-1.936.293.157,1.477.157,3.863.226,5.712A48.308,48.308,0,0,1,987.5,84.472c-.793,4.245-2.357,9.292-5.174,13.067-2.846,3.717-6.25,6.25-9.742,6.25-3.413,0-5.937-2.005-7.58-5.653a16.017,16.017,0,0,1-.958-11.052,22.325,22.325,0,0,1,4.978-10.338,30.984,30.984,0,0,1,9.507-7.8,30.24,30.24,0,0,1,14.045-3.277,23.419,23.419,0,0,1,11.8,3.12,21.637,21.637,0,0,1,7.815,7.815A19.92,19.92,0,0,1,1014.869,85.666ZM986.181,69.1a30.127,30.127,0,0,0-9.381,4.3c-3.9,2.817-7.325,6.837-8.812,10.925-1.565,4.079-1.565,8.7-.587,11.287,1.046,2.523,3.58,3.042,6.524,2.083a13.317,13.317,0,0,0,7.512-6.093,28.606,28.606,0,0,0,4.294-11.952A53.4,53.4,0,0,0,986.181,69.1Z" transform="translate(36.987 -57.956)" fill="#1a1a1a"/>
          <path id="パス_47" data-name="パス 47" d="M986.719,100.982a77.355,77.355,0,0,1-15.16,13.439l-.989-1.33c10.417-8.47,18.662-19.454,24.619-33.059H978.63l-.763-1.633h17.968a115.92,115.92,0,0,0,4.235-13.517c4.235.959,6.259,2.005,6.259,2.964,0,.685-1.046,1.115-3.208,1.34A91.494,91.494,0,0,1,1000,78.4h12.334l2.152-2.827c2.6,2.23,3.951,3.639,3.951,4.167,0,.215-.235.509-.685.812l-1.4.743a60.419,60.419,0,0,1-1.486,7.874h3.472l2.083-2.758c2.621,1.937,3.951,3.208,3.951,3.873,0,.293-.235.6-.655.89l-1.5.822a53.613,53.613,0,0,1-1.722,7.287h3.942l2.367-2.827q3.8,3.11,3.795,4.01a.983.983,0,0,1-.43.743l-1.419.959c-.831,10.182-2.024,16.579-3.59,19.082-1.3,2.171-3.6,3.355-6.827,3.355a2.549,2.549,0,0,0-1.985-2.758,36.125,36.125,0,0,0-6.7-1.477v-1.712a88.177,88.177,0,0,0,8.989.675c2.308,0,3.785-1.262,4.4-3.639.959-3.413,1.546-8.333,2-14.71Zm.792,6.984c.088,4.832-.734,8.92-2.5,12.1-1.282,2.386-2.6,3.57-4.089,3.57-1.642,0-2.533-.812-2.533-2.387,0-.743.655-1.467,1.8-2.357,2.876-2.318,4.724-6.094,5.614-11.307ZM982.16,65.624c5.586,2.592,8.392,5.575,8.392,8.832,0,1.78-.8,2.68-2.415,2.68a1.73,1.73,0,0,1-1.888-1.633,16.4,16.4,0,0,0-5.057-8.842Zm34.468,33.656a54.161,54.161,0,0,0,2.015-8.48H993.82a67.783,67.783,0,0,1-5.8,8.48ZM993.546,106.7c3.423,4.235,5.1,7.874,5.1,10.994,0,2.3-.87,3.345-2.572,3.345a1.76,1.76,0,0,1-2.015-1.937c0-.293.069-.606.069-.89v-.89a29.158,29.158,0,0,0-1.937-9.967Zm17.469-17.537c.734-3.277,1.32-6.309,1.77-9.135H999.346a93.223,93.223,0,0,1-4.46,9.135Zm-9.067,16.05c4.958,3.629,7.394,6.905,7.394,9.81,0,1.858-.8,2.817-2.356,2.817-1.116,0-1.771-.88-2.016-2.523a16.8,16.8,0,0,0-4.068-9.057Zm8.881-1.193c5.595,2.817,8.334,5.653,8.334,8.549,0,1.633-.724,2.455-2.23,2.455-1.027,0-1.673-.753-2.006-2.23-.587-2.6-2.289-5.125-4.89-7.58Z" transform="translate(99.086 -64.881)" fill="#1a1a1a"/>
          <path id="パス_48" data-name="パス 48" d="M1030.038,85.666a28.7,28.7,0,0,1-.939,10.25,16.615,16.615,0,0,1-7.218,9.36,34.405,34.405,0,0,1-12.256,4.45,31.643,31.643,0,0,1-11.952.068c-.743-.068-1.1-.362-1.046-.734,0-.372.45-.665,1.046-.6a32.543,32.543,0,0,0,3.922.225,37.25,37.25,0,0,0,8.93-1.262,33.158,33.158,0,0,0,9.067-4.382,16.945,16.945,0,0,0,6.377-10.554A26.391,26.391,0,0,0,1025,80.237a15.383,15.383,0,0,0-6.533-9.2c-3.258-2.152-8.246-3.208-12.932-2.749-.587.068-1.261.225-1.927.293.147,1.477.147,3.863.216,5.712a49.208,49.208,0,0,1-1.106,10.182c-.83,4.245-2.367,9.292-5.183,13.067-2.837,3.717-6.251,6.25-9.762,6.25-3.394,0-5.937-2.005-7.551-5.653a15.863,15.863,0,0,1-.988-11.052,22.362,22.362,0,0,1,5.008-10.338,30.669,30.669,0,0,1,9.487-7.8,30.184,30.184,0,0,1,14.046-3.277,23.576,23.576,0,0,1,11.815,3.12,21.88,21.88,0,0,1,7.8,7.815A19.93,19.93,0,0,1,1030.038,85.666ZM1001.389,69.1a29.777,29.777,0,0,0-9.37,4.3c-3.932,2.817-7.355,6.837-8.851,10.925-1.537,4.079-1.537,8.7-.577,11.287,1.027,2.523,3.57,3.042,6.543,2.083a13.166,13.166,0,0,0,7.493-6.093,28.5,28.5,0,0,0,4.323-11.952A55.659,55.659,0,0,0,1001.389,69.1Z" transform="translate(170.359 -57.956)" fill="#1a1a1a"/>
          <path id="パス_49" data-name="パス 49" d="M985.793,82.353A95.384,95.384,0,0,0,990.761,64.9h4.47a123.277,123.277,0,0,1-7.883,17.9Zm10.4,0a110.759,110.759,0,0,0,4.979-17.449h4.45a112.642,112.642,0,0,1-7.884,17.9Z" transform="translate(232.757 -64.679)" fill="#1a1a1a"/>
        </g>
      </g>
    </g>
  </g>
</svg>
