<svg xmlns="http://www.w3.org/2000/svg"  viewBox="0 0 289.184 255.82">
  <path id="nayami" d="M2245.068,1115.005a357.857,357.857,0,0,0-106.58-12.8,363.889,363.889,0,0,0-53.727,5.707,350.914,350.914,0,0,0-51.879,13.576c-7.736,2.675-15.7,5.336-22.882,9.307-6.255,3.457-12.471,8.107-16.095,14.4a19.566,19.566,0,0,0-.039,19.98c3.6,5.9,10,9.282,16.4,11.323,7.519,2.4,15.521,3.046,23.321,3.929q14.407,1.63,28.874,2.655,28.926,2.051,57.955,1.687,29-.363,57.895-3.134,29.035-2.787,57.781-7.966c7.285-1.314,14.774-2.637,21.047-6.853,5.69-3.824,9.782-10.286,7.284-17.285-2.4-6.731-9.325-9.981-15.86-11.47a98.238,98.238,0,0,0-11.936-1.634q-7.045-.715-14.11-1.214a466.6,466.6,0,0,0-56.615-.55,476.209,476.209,0,0,0-56.63,6.315q-13.957,2.4-27.751,5.654c-8.943,2.107-17.934,4.329-26.675,7.174-7.786,2.535-15.829,6.432-19.836,13.984-3.8,7.166-3.37,16.2,3.2,21.6a31.383,31.383,0,0,0,10.594,5.351,119.854,119.854,0,0,0,13.378,3.369,197.134,197.134,0,0,0,28.386,3.248c19.384.948,38.9.511,58.28-.208q29.436-1.091,58.766-4,14.726-1.46,29.4-3.378c8.248-1.078,16.724-1.874,24.71-4.317,7.168-2.193,13.667-5.874,18.1-12.042,1.229-1.708-.022-4.477-2-4.906a361.075,361.075,0,0,0-95.849-7.685,366.389,366.389,0,0,0-94.072,17.483q-11.351,3.71-22.437,8.176c-7.41,2.988-14.854,6.091-21.98,9.716-3.31,1.684-6.244,4.071-7.371,7.744a9.546,9.546,0,0,0,1.446,8.268c3.581,5,10.149,7.576,16.052,8.423,4.085.586,8.279.631,12.4.827q6.508.309,13.021.494,13.025.37,26.058.248,26.061-.244,52.053-2.453a697.3,697.3,0,0,0,103.176-16.593q6.337-1.516,12.644-3.153c3.308-.857,3.04-5.458,0-6.441a233.252,233.252,0,0,0-73.285-11.154,239.1,239.1,0,0,0-73.187,12,231.27,231.27,0,0,0-34.408,14.548c-5.022,2.624-10.238,5.42-13.6,10.145a13.008,13.008,0,0,0-.313,14.869c6.508,9.188,19.868,9.7,29.975,10.614a312.588,312.588,0,0,0,40.707,1.017,317.8,317.8,0,0,0,80.49-13.677q4.774-1.467,9.5-3.088a3.356,3.356,0,0,0-.888-6.56,211.959,211.959,0,0,0-90.688,15.435,162.466,162.466,0,0,0-20.87,9.868c-5.672,3.337-12.2,10.251-7.87,17.162,1.963,3.133,5.467,4.584,8.791,5.8a83.788,83.788,0,0,0,10.219,3.012,92.154,92.154,0,0,0,67.385-10.583c2.275-1.366,2.155-5.59-.8-6.1a67.435,67.435,0,0,0-49.79,11.243,62.143,62.143,0,0,0-18.1,18.956c-1.477,2.521-2.441,5.407-1.745,8.332a9.116,9.116,0,0,0,4.427,5.54c3.949,2.308,9.139,2.825,13.616,3a47.487,47.487,0,0,0,30.44-9.6c2.224-1.713,2.16-5.178-.8-6.1-10.993-3.442-22.994,1.4-30.4,9.791-8.425,9.552-10.173,22.66-7.016,34.74a55.587,55.587,0,0,0,9.6,19.436,3.449,3.449,0,0,0,4.57,1.2c1.411-.826,2.3-3.125,1.2-4.57-6.729-8.844-11.147-19.828-10.04-31.084a27.138,27.138,0,0,1,15.992-22.118,20.153,20.153,0,0,1,14.313-.953q-.4-3.052-.8-6.1a41.508,41.508,0,0,1-22.739,8.644,38.274,38.274,0,0,1-11.906-1.018,10.87,10.87,0,0,1-2.157-.743,4.571,4.571,0,0,1-1.557-1.1,1.631,1.631,0,0,1-.292-1.515,8.726,8.726,0,0,1,1.179-2.609c7.668-12.759,21.225-21.823,35.444-25.637a58.207,58.207,0,0,1,24.775-1.279q-.4-3.052-.8-6.1a84.192,84.192,0,0,1-36.869,11.7,83.091,83.091,0,0,1-29.188-2.757,51.106,51.106,0,0,1-8.726-3,7.034,7.034,0,0,1-2.474-1.782,2.242,2.242,0,0,1-.251-2.492,9.374,9.374,0,0,1,2.071-2.809,18.6,18.6,0,0,1,3.474-2.616,143.643,143.643,0,0,1,18.989-9.11,209.613,209.613,0,0,1,41.3-12.219,204.825,204.825,0,0,1,48.083-3.169l-.888-6.56a310.814,310.814,0,0,1-76.668,15.85,313.974,313.974,0,0,1-39.142.567q-9.847-.474-19.651-1.571c-4.179-.468-9.243-1.268-13.115-3.228a11.869,11.869,0,0,1-4.689-3.584c.334.43-.281-.462-.378-.629q-.2-.341-.365-.7c-.247-.523.209.714-.078-.227a11.456,11.456,0,0,1-.318-1.245c.11.591-.01-.109-.013-.267-.008-.354-.021-.706,0-1.061a8.353,8.353,0,0,1,2.613-4.965,26.368,26.368,0,0,1,5.963-4.341,201.1,201.1,0,0,1,32.072-14.444,232.321,232.321,0,0,1,69.214-13.307,228.18,228.18,0,0,1,70.214,8.2q4.255,1.2,8.459,2.559v-6.441a686.6,686.6,0,0,1-200.838,21.41q-6.239-.256-12.472-.626a27.086,27.086,0,0,1-8.63-1.717,15.941,15.941,0,0,1-5.866-3.757,5.915,5.915,0,0,1-.949-1.8c-.282-.7-.069.543-.033-.216.014-.286-.007-.568.029-.854-.089.706.028.036.083-.137.041-.151.088-.3.142-.447q-.207.444.059-.111c1.4-2.68,5.312-3.93,7.985-5.18q5.185-2.424,10.447-4.678,10.579-4.53,21.462-8.312a358.853,358.853,0,0,1,89.93-19.009,355.179,355.179,0,0,1,92.287,4.563q5.63,1.035,11.223,2.254l-2-4.906c-3.777,5.25-10.1,7.961-16.326,9.6-7.748,2.039-15.84,2.834-23.768,3.844q-28.25,3.6-56.681,5.5-28.415,1.9-56.909,2.109c-18.014.129-36.28.205-54.071-2.989a132.192,132.192,0,0,1-13.2-3.048,32.444,32.444,0,0,1-9.7-4.062,9.418,9.418,0,0,1-4.206-6.941,14.121,14.121,0,0,1,2.763-8.849c4.126-5.954,12.213-8.321,18.881-10.254q13.072-3.789,26.356-6.792a459.9,459.9,0,0,1,53.393-8.853,468.633,468.633,0,0,1,54.425-2.551q13.627.155,27.23,1.107,6.8.476,13.58,1.153,3.279.327,6.554.7c.178.021.357.042.535.065-.081-.01-.382-.053.014,0q.548.077,1.094.168c.863.143,1.722.306,2.575.5a22.782,22.782,0,0,1,8.2,3.188,5.825,5.825,0,0,1,1.2.939c.243.225.478.46.7.7q.167.182.325.371c.352.418-.232-.344.077.1.187.27.363.546.524.832.084.148.4.792.338.641-.051-.122.227.7.274.877s.082.337.121.506c.014.062.118.688.085.423-.019-.15.029.572.031.75,0,.33-.012.658-.036.987-.028.4.006-.024.018-.089-.028.156-.056.313-.094.467-.089.358-.187.709-.3,1.06-.189.573.125-.177-.152.36-.146.281-.294.56-.459.831s-.344.542-.533.8c.272-.372-.384.441-.519.586a20.812,20.812,0,0,1-7.193,4.724c-.941.411-2.725,1.035-4.038,1.427-1.535.458-3.092.83-4.664,1.134-4.565.885-9.147,1.689-13.733,2.464q-13.449,2.273-26.983,4.01-27.68,3.528-55.583,4.829-27.874,1.3-55.792.37-27.888-.933-55.641-4.1c-7.358-.842-14.093-1.389-21.271-3.773a29.069,29.069,0,0,1-7.889-3.878c-.143-.1-.286-.2-.425-.308.062.046.285.226-.011-.011q-.4-.323-.789-.67a18.852,18.852,0,0,1-1.565-1.571,14.23,14.23,0,0,1-2.078-3.305c.173.386-.147-.384-.187-.5q-.178-.505-.323-1.022-.152-.544-.267-1.1-.057-.277-.1-.557c-.1-.606.032.384-.03-.215a14.759,14.759,0,0,1-.053-2.34,6.8,6.8,0,0,1,.254-1.722,17.032,17.032,0,0,1,3.81-7.2c4.4-5.1,10.3-8.616,16.452-11.38a230.375,230.375,0,0,1,23.083-8.422q12.288-3.968,24.847-7.019a349.8,349.8,0,0,1,50.271-8.416,358.225,358.225,0,0,1,51.608-1.058,346.39,346.39,0,0,1,50.815,6.4q12.287,2.487,24.37,5.861c4.147,1.156,5.917-5.286,1.775-6.441Z" transform="translate(-1991.142 -1102.031)" fill="#666666"/>
</svg>
